<?xml version="1.0" encoding="UTF-8"?>
<svg version="1.1" xmlns="http://www.w3.org/2000/svg" width="376" height="202">
<path d="M0 0 C1.98 0 3.96 0 6 0 C7.81379032 3.85430443 8.4252062 6.747938 8 11 C6.625 14.5625 6.625 14.5625 5 18 C3.24552611 21.83146137 2.6519635 25.11188695 2.375 29.3125 C2.30023438 30.38113281 2.22546875 31.44976562 2.1484375 32.55078125 C2.09945312 33.35902344 2.05046875 34.16726562 2 35 C2.61875 35.103125 3.2375 35.20625 3.875 35.3125 C6 36 6 36 8 39 C8 40.32 8 41.64 8 43 C9.32 43.33 10.64 43.66 12 44 C12 44.66 12 45.32 12 46 C14.31 46 16.62 46 19 46 C19 46.66 19 47.32 19 48 C19.70125 48.103125 20.4025 48.20625 21.125 48.3125 C24.39137647 49.09359003 27.0471852 50.42058743 30 52 C30 52.66 30 53.32 30 54 C30.66 54 31.32 54 32 54 C32 54.66 32 55.32 32 56 C32.66 56 33.32 56 34 56 C34 56.66 34 57.32 34 58 C34.66 58 35.32 58 36 58 C36 58.66 36 59.32 36 60 C36.66 60 37.32 60 38 60 C40 63 40 63 40 66 C40.66 66 41.32 66 42 66 C42 67.32 42 68.64 42 70 C42.66 70 43.32 70 44 70 C44 71.65 44 73.3 44 75 C44.66 75 45.32 75 46 75 C46.06058594 75.67546875 46.12117188 76.3509375 46.18359375 77.046875 C46.26738281 77.93890625 46.35117187 78.8309375 46.4375 79.75 C46.55931641 81.07257813 46.55931641 81.07257813 46.68359375 82.421875 C46.96238465 84.69350452 47.38790577 86.79851823 48 89 C49.98 89.495 49.98 89.495 52 90 C52.3662105 93.20434191 52.11836659 94.7850111 50.54632568 97.64030457 C46.85103733 101.06475067 43.88173176 100.67005214 39.00878906 100.56762695 C38.10112289 100.56835709 37.19345673 100.56908722 36.25828552 100.56983948 C33.26012269 100.56635786 30.26351618 100.52746933 27.265625 100.48828125 C25.18626759 100.47895518 23.10689918 100.47183809 21.02752686 100.46684265 C15.55606728 100.4477568 10.08527194 100.39864174 4.61407471 100.34332275 C-0.9694317 100.29216484 -6.5530455 100.26933596 -12.13671875 100.24414062 C-23.09143758 100.19052502 -34.04566355 100.10519254 -45 100 C-45.33 98.68 -45.66 97.36 -46 96 C-46.66 96 -47.32 96 -48 96 C-49.125 92.25 -49.125 92.25 -48 90 C-46.68 90 -45.36 90 -44 90 C-44 85.38 -44 80.76 -44 76 C-43.34 76 -42.68 76 -42 76 C-42.0825 75.319375 -42.165 74.63875 -42.25 73.9375 C-41.90053135 69.83124335 -40.18150968 67.47678105 -38 64 C-37.34 64 -36.68 64 -36 64 C-35.855625 63.38125 -35.71125 62.7625 -35.5625 62.125 C-35 60 -35 60 -34 58 C-33.34 58 -32.68 58 -32 58 C-32 57.34 -32 56.68 -32 56 C-31.34 56 -30.68 56 -30 56 C-30 55.34 -30 54.68 -30 54 C-29.34 54 -28.68 54 -28 54 C-28 53.34 -28 52.68 -28 52 C-26.68 52 -25.36 52 -24 52 C-24 51.34 -24 50.68 -24 50 C-17.60599652 46.57879294 -11.44734579 43.54864571 -4 44 C-4 41.36 -4 38.72 -4 36 C-3.34 35.67 -2.68 35.34 -2 35 C-2.99 34.505 -2.99 34.505 -4 34 C-5.55668006 25.93356695 -4.99634971 19.80091108 -1.375 12.4375 C0.942216 7.67027625 1.46587032 5.0741665 0 0 Z M-16 54 C-15.67 54.66 -15.34 55.32 -15 56 C-14.67 55.34 -14.34 54.68 -14 54 C-14.66 54 -15.32 54 -16 54 Z M-21 58 C-20.67 58.66 -20.34 59.32 -20 60 C-19.67 59.34 -19.34 58.68 -19 58 C-19.66 58 -20.32 58 -21 58 Z M-23 60 C-24.82016619 61.87115621 -24.82016619 61.87115621 -26.625 64.25 C-27.25664062 65.03890625 -27.88828125 65.8278125 -28.5390625 66.640625 C-30.35096769 69.10429251 -30.35096769 69.10429251 -30 73 C-30.66 73 -31.32 73 -32 73 C-32.66 75.97 -33.32 78.94 -34 82 C-32.68 82 -31.36 82 -30 82 C-30 80.35 -30 78.7 -30 77 C-29.34 77 -28.68 77 -28 77 C-27.773125 76.05125 -27.54625 75.1025 -27.3125 74.125 C-25.89994419 69.10372496 -23.42276633 64.59585827 -21 60 C-21.66 60 -22.32 60 -23 60 Z " fill="#FFFFFF" transform="translate(213,9)"/>
<path d="M0 0 C5.94 0 11.88 0 18 0 C18 0.66 18 1.32 18 2 C19.65 2 21.3 2 23 2 C23 2.66 23 3.32 23 4 C23.598125 4.103125 24.19625 4.20625 24.8125 4.3125 C27.28243264 5.08876455 28.32251235 6.07088921 30 8 C30.144375 6.865625 30.28875 5.73125 30.4375 4.5625 C31 1 31 1 32 0 C33.810285 -0.09879565 35.62452727 -0.12971514 37.4375 -0.125 C38.42621094 -0.12757812 39.41492188 -0.13015625 40.43359375 -0.1328125 C43 0 43 0 45 1 C45 22.45 45 43.9 45 66 C34 67 34 67 31 66 C30.505 63.03 30.505 63.03 30 60 C29.13375 60.928125 29.13375 60.928125 28.25 61.875 C25.26457209 64.6945708 23.38365995 65.93710637 19.25 66.125 C18.5075 66.08375 17.765 66.0425 17 66 C17 66.66 17 67.32 17 68 C8.00373725 70.13069381 0.00062612 68.33571763 -8 64 C-8.99 63.34 -9.98 62.68 -11 62 C-11 61.34 -11 60.68 -11 60 C-11.66 60 -12.32 60 -13 60 C-13 59.34 -13 58.68 -13 58 C-13.66 58 -14.32 58 -15 58 C-15 57.34 -15 56.68 -15 56 C-15.99 55.67 -16.98 55.34 -18 55 C-18.33 52.69 -18.66 50.38 -19 48 C-19.66 48 -20.32 48 -21 48 C-21.144375 46.865625 -21.28875 45.73125 -21.4375 44.5625 C-21.61171478 41.19222799 -21.61171478 41.19222799 -23 40 C-23.0989294 37.83519203 -23.129711 35.66706215 -23.125 33.5 C-23.12757813 32.3140625 -23.13015625 31.128125 -23.1328125 29.90625 C-23 27 -23 27 -22 26 C-21.63239269 23.67182036 -21.29758419 21.3381615 -21 19 C-20.34 19 -19.68 19 -19 19 C-18.855625 18.21625 -18.71125 17.4325 -18.5625 16.625 C-18 14 -18 14 -17 12 C-16.34 12 -15.68 12 -15 12 C-14.34 10.68 -13.68 9.36 -13 8 C-12.34 8 -11.68 8 -11 8 C-11 7.34 -11 6.68 -11 6 C-10.34 6 -9.68 6 -9 6 C-9 5.34 -9 4.68 -9 4 C-7.68 4 -6.36 4 -5 4 C-5 3.34 -5 2.68 -5 2 C-3.35 2 -1.7 2 0 2 C0 1.34 0 0.68 0 0 Z M2 14 C2 14.66 2 15.32 2 16 C1.01 16 0.02 16 -1 16 C-1 16.66 -1 17.32 -1 18 C-1.66 18 -2.32 18 -3 18 C-3 18.66 -3 19.32 -3 20 C-3.66 20 -4.32 20 -5 20 C-7.13092384 23.55153974 -7.4997975 26.92692254 -8 31 C-8.20625 31.94875 -8.4125 32.8975 -8.625 33.875 C-8.74875 34.57625 -8.8725 35.2775 -9 36 C-8.67 36.33 -8.34 36.66 -8 37 C-7.63239269 39.32817964 -7.29758419 41.6618385 -7 44 C-6.34 44 -5.68 44 -5 44 C-4.9175 44.5775 -4.835 45.155 -4.75 45.75 C-3.41383903 49.75848291 -0.42183812 51.71877459 3 54 C8.67076144 55.05726061 13.31933101 54.91296466 19 54 C19 53.34 19 52.68 19 52 C19.5775 51.9175 20.155 51.835 20.75 51.75 C23.67794601 50.774018 25.05244537 49.36488777 27 47 C27 46.01 27 45.02 27 44 C27.66 44 28.32 44 29 44 C29.144375 42.948125 29.28875 41.89625 29.4375 40.8125 C29.76796096 38.57270903 30.14405121 36.33736442 30.625 34.125 C30.810625 33.073125 30.810625 33.073125 31 32 C30.67 31.67 30.34 31.34 30 31 C29.63239269 28.67182036 29.29758419 26.3381615 29 24 C28.34 24 27.68 24 27 24 C27 22.68 27 21.36 27 20 C26.34 20 25.68 20 25 20 C25 19.34 25 18.68 25 18 C24.34 18 23.68 18 23 18 C23 17.34 23 16.68 23 16 C15.24614651 12.14030404 10.37420284 10.80982749 2 14 Z " fill="#FFFFFF" transform="translate(320,51)"/>
<path d="M0 0 C0.78117187 -0.00773437 1.56234375 -0.01546875 2.3671875 -0.0234375 C6.96876368 -0.00794398 10.6709182 0.50171697 15 2.25 C15 2.91 15 3.57 15 4.25 C16.32 4.25 17.64 4.25 19 4.25 C19 4.91 19 5.57 19 6.25 C19.66 6.25 20.32 6.25 21 6.25 C21 6.91 21 7.57 21 8.25 C22.32 8.91 23.64 9.57 25 10.25 C25 10.91 25 11.57 25 12.25 C25.66 12.25 26.32 12.25 27 12.25 C31 20.25 31 20.25 31 40.25 C15.16 40.25 -0.68 40.25 -17 40.25 C-17 42.23 -17 44.21 -17 46.25 C-16.34 46.25 -15.68 46.25 -15 46.25 C-13.64613064 47.90002828 -12.31321858 49.5674387 -11 51.25 C-10.34 51.58 -9.68 51.91 -9 52.25 C-9 52.91 -9 53.57 -9 54.25 C-8.195625 54.229375 -7.39125 54.20875 -6.5625 54.1875 C-4 54.25 -4 54.25 -3 55.25 C-0.67182036 55.61760731 1.6618385 55.95241581 4 56.25 C4 55.59 4 54.93 4 54.25 C5.65 54.25 7.3 54.25 9 54.25 C9 53.59 9 52.93 9 52.25 C10.2065625 51.321875 10.2065625 51.321875 11.4375 50.375 C14.39439999 48.34960793 14.39439999 48.34960793 15 44.25 C20.28 44.25 25.56 44.25 31 44.25 C30.07988583 48.85057086 28.89559434 52.04672559 27 56.25 C26.34 56.25 25.68 56.25 25 56.25 C24.34 57.57 23.68 58.89 23 60.25 C22.34 60.25 21.68 60.25 21 60.25 C21 60.91 21 61.57 21 62.25 C20.34 62.25 19.68 62.25 19 62.25 C19 62.91 19 63.57 19 64.25 C17.68 64.25 16.36 64.25 15 64.25 C15 64.91 15 65.57 15 66.25 C7.21930149 68.10939879 0.01701946 69.66467342 -8 69.25 C-8 68.26 -8 67.27 -8 66.25 C-8.56203125 66.46527344 -9.1240625 66.68054688 -9.703125 66.90234375 C-12.80503202 67.37185008 -14.09632389 66.41251059 -16.75 64.8125 C-17.54921875 64.33941406 -18.3484375 63.86632812 -19.171875 63.37890625 C-19.77515625 63.00636719 -20.3784375 62.63382813 -21 62.25 C-21 61.59 -21 60.93 -21 60.25 C-22.32 59.59 -23.64 58.93 -25 58.25 C-25 57.59 -25 56.93 -25 56.25 C-25.99 55.92 -26.98 55.59 -28 55.25 C-29.0625 52.625 -29.0625 52.625 -30 49.25 C-31.21899787 44.64249943 -31.21899787 44.64249943 -33 40.25 C-33.09663965 38.06423854 -33.12980327 35.87539152 -33.125 33.6875 C-33.12757812 32.51058594 -33.13015625 31.33367187 -33.1328125 30.12109375 C-33 27.25 -33 27.25 -32 26.25 C-31.896875 25.21875 -31.79375 24.1875 -31.6875 23.125 C-30.88724711 18.61448373 -29.42718738 16.08652198 -27 12.25 C-26.34 12.25 -25.68 12.25 -25 12.25 C-24.34 10.93 -23.68 9.61 -23 8.25 C-22.34 8.25 -21.68 8.25 -21 8.25 C-21 7.59 -21 6.93 -21 6.25 C-18 4.25 -18 4.25 -15 4.25 C-15 3.59 -15 2.93 -15 2.25 C-9.8720069 0.17907971 -5.43487949 -0.05381069 0 0 Z M-15 20.25 C-15 20.91 -15 21.57 -15 22.25 C-15.66 22.25 -16.32 22.25 -17 22.25 C-17 24.23 -17 26.21 -17 28.25 C-5.78 28.25 5.44 28.25 17 28.25 C17.63473942 22.64527478 17.63473942 22.64527478 15.5625 20.5 C15.046875 20.0875 14.53125 19.675 14 19.25 C13.67 18.59 13.34 17.93 13 17.25 C12.01 17.25 11.02 17.25 10 17.25 C9.67 16.26 9.34 15.27 9 14.25 C-1.03970835 10.5097165 -7.91672558 12.12506758 -15 20.25 Z " fill="#FFFFFF" transform="translate(104,50.75)"/>
<path d="M0 0 C4.62 0 9.24 0 14 0 C14.33 10.56 14.66 21.12 15 32 C15.33 31.34 15.66 30.68 16 30 C16.66 30 17.32 30 18 30 C18 29.34 18 28.68 18 28 C18.66 28 19.32 28 20 28 C20 27.34 20 26.68 20 26 C20.66 26 21.32 26 22 26 C22 25.34 22 24.68 22 24 C22.66 24 23.32 24 24 24 C24.309375 22.9790625 24.309375 22.9790625 24.625 21.9375 C26.42895027 18.08360625 28.9010345 14.92212236 32 12 C32.66 12 33.32 12 34 12 C34 11.34 34 10.68 34 10 C34.66 10 35.32 10 36 10 C36 9.34 36 8.68 36 8 C36.66 8 37.32 8 38 8 C38 7.34 38 6.68 38 6 C38.66 6 39.32 6 40 6 C40.309375 5.195625 40.61875 4.39125 40.9375 3.5625 C42 1 42 1 43 0 C45.86267567 -0.07325168 48.700719 -0.09238205 51.5625 -0.0625 C52.36880859 -0.05798828 53.17511719 -0.05347656 54.00585938 -0.04882812 C56.00393756 -0.03700518 58.00197783 -0.01906914 60 0 C60 1.32 60 2.64 60 4 C59.34 4 58.68 4 58 4 C58 4.66 58 5.32 58 6 C57.34 6 56.68 6 56 6 C55.79375 6.680625 55.5875 7.36125 55.375 8.0625 C53.57104973 11.91639375 51.0989655 15.07787764 48 18 C47.34 18 46.68 18 46 18 C46 18.66 46 19.32 46 20 C45.34 20 44.68 20 44 20 C44 20.66 44 21.32 44 22 C43.34 22 42.68 22 42 22 C42 22.66 42 23.32 42 24 C41.34 24 40.68 24 40 24 C40 24.66 40 25.32 40 26 C39.34 26 38.68 26 38 26 C37.34 27.65 36.68 29.3 36 31 C35.34 31 34.68 31 34 31 C33.7525 31.556875 33.505 32.11375 33.25 32.6875 C31.77075182 35.42410913 30.06532561 37.67650869 28 40 C27.34 40 26.68 40 26 40 C26.66 41.98 27.32 43.96 28 46 C28.66 46 29.32 46 30 46 C30 46.66 30 47.32 30 48 C30.66 48 31.32 48 32 48 C32 48.66 32 49.32 32 50 C32.66 50 33.32 50 34 50 C34 50.66 34 51.32 34 52 C34.66 52 35.32 52 36 52 C36 52.66 36 53.32 36 54 C36.66 54 37.32 54 38 54 C38 54.66 38 55.32 38 56 C38.66 56 39.32 56 40 56 C41.62109375 57.609375 41.62109375 57.609375 43.4375 59.75 C44.03433594 60.44609375 44.63117187 61.1421875 45.24609375 61.859375 C50 67.66146993 50 67.66146993 50 70 C50.66 70 51.32 70 52 70 C52 70.66 52 71.32 52 72 C52.66 72 53.32 72 54 72 C54 72.66 54 73.32 54 74 C54.66 74 55.32 74 56 74 C56 74.66 56 75.32 56 76 C56.66 76 57.32 76 58 76 C58 76.66 58 77.32 58 78 C58.66 78 59.32 78 60 78 C60 79.32 60 80.64 60 82 C53.76817361 83.03863773 48.25307239 82.83288874 42 82 C42 81.34 42 80.68 42 80 C41.01 79.67 40.02 79.34 39 79 C37.37090909 77.24710944 35.81595653 75.42426823 34.3125 73.5625 C33.10013672 72.07943359 33.10013672 72.07943359 31.86328125 70.56640625 C30 68 30 68 30 66 C29.34 66 28.68 66 28 66 C28 65.34 28 64.68 28 64 C27.38125 63.7525 26.7625 63.505 26.125 63.25 C23.64931313 61.79371361 23.04874998 60.62187494 22 58 C21.34 58 20.68 58 20 58 C18.35 55.69 16.7 53.38 15 51 C14.67 61.23 14.34 71.46 14 82 C5 83 5 83 0 82 C0 54.94 0 27.88 0 0 Z " fill="#FFFFFF" transform="translate(13,35)"/>
<path d="M0 0 C4.62 0 9.24 0 14 0 C15.76582363 1.76582363 15.11985561 4.10371999 15.12442017 6.45516968 C15.12082489 7.23703644 15.11722961 8.0189032 15.11352539 8.82446289 C15.11367142 9.64390884 15.11381744 10.4633548 15.1139679 11.30763245 C15.11326852 14.02933353 15.10547501 16.75096705 15.09765625 19.47265625 C15.09579216 21.35452741 15.09436821 23.23639906 15.09336853 25.11827087 C15.08954267 30.08148529 15.07971181 35.04467064 15.06866455 40.00787354 C15.0584519 45.06839606 15.05387122 50.12892327 15.04882812 55.18945312 C15.0380896 65.12631488 15.02101236 75.06315503 15 85 C8.89607691 87.16180609 7.29872506 86.91234063 0 86 C0 57.62 0 29.24 0 0 Z " fill="#FFFFFF" transform="translate(279,31)"/>
<path d="M0 0 C4.62 0 9.24 0 14 0 C14 28.38 14 56.76 14 86 C3.875 87.125 3.875 87.125 0 87 C-0.80390055 82.06744995 -1.14429968 77.29346899 -1.12939453 72.29223633 C-1.13114685 71.55636795 -1.13289917 70.82049957 -1.13470459 70.06233215 C-1.13907326 67.65220722 -1.13620371 65.24215681 -1.1328125 62.83203125 C-1.13348675 61.1476795 -1.1344578 59.46332785 -1.13571167 57.77897644 C-1.1371817 54.2596239 -1.13505565 50.74029683 -1.13037109 47.22094727 C-1.12466103 42.7117273 -1.12796528 38.2025667 -1.13394356 33.69334888 C-1.1375567 30.21981865 -1.13640734 26.7463025 -1.13381577 23.27277184 C-1.13314927 21.609799 -1.13396524 19.94682487 -1.13629532 18.28385353 C-1.13883562 15.96239452 -1.13496237 13.64103191 -1.12939453 11.31958008 C-1.13243088 10.29166351 -1.13243088 10.29166351 -1.13552856 9.24298096 C-1.12071356 5.90751551 -0.81873973 3.27495892 0 0 Z " fill="#FFFFFF" transform="translate(139,31)"/>
<path d="M0 0 C19 0 19 0 25 3 C25.99 3.33 26.98 3.66 28 4 C28 4.66 28 5.32 28 6 C28.66 6 29.32 6 30 6 C30 6.66 30 7.32 30 8 C30.66 8 31.32 8 32 8 C36.13657964 14.20486947 36.25715556 19.77107145 36 27 C35.34 27 34.68 27 34 27 C34.04125 27.928125 34.0825 28.85625 34.125 29.8125 C34 33 34 33 32 36 C31.34 36 30.68 36 30 36 C30 36.66 30 37.32 30 38 C29.34 38 28.68 38 28 38 C28 38.66 28 39.32 28 40 C26.68 40 25.36 40 24 40 C24 40.66 24 41.32 24 42 C20.9378174 42.19533059 17.87553679 42.38153284 14.8125 42.5625 C13.51602539 42.64661133 13.51602539 42.64661133 12.19335938 42.73242188 C10.93168945 42.80493164 10.93168945 42.80493164 9.64453125 42.87890625 C8.87471924 42.9260376 8.10490723 42.97316895 7.31176758 43.02172852 C5 43 5 43 0 42 C0 28.14 0 14.28 0 0 Z M8 8 C8 16.91 8 25.82 8 35 C19.09366372 35.18248937 19.09366372 35.18248937 23.1875 31.5 C23.785625 30.675 24.38375 29.85 25 29 C25.33 28.67 25.66 28.34 26 28 C26.12583966 26.065581 26.17578009 24.12597237 26.1875 22.1875 C26.20167969 21.12917969 26.21585938 20.07085937 26.23046875 18.98046875 C26.00054491 16.00704689 25.684078 14.43135377 24 12 C22.35627786 10.6693233 22.35627786 10.6693233 20.375 9.75 C19.42753906 9.24726563 19.42753906 9.24726563 18.4609375 8.734375 C15.15037054 7.61873047 15.15037054 7.61873047 8 8 Z " fill="#FFFFFF" transform="translate(65,151)"/>
<path d="M0 0 C2.68777802 -0.0544207 5.37443212 -0.09387266 8.0625 -0.125 C8.81466797 -0.14175781 9.56683594 -0.15851563 10.34179688 -0.17578125 C15.29327709 -0.21865121 19.30414451 0.41600625 24 2 C24 2.66 24 3.32 24 4 C24.66 4 25.32 4 26 4 C26 4.66 26 5.32 26 6 C26.66 6 27.32 6 28 6 C30.29248809 10.8715372 30.78600343 14.74024015 29 19.875 C28.67 20.57625 28.34 21.2775 28 22 C27.34 22 26.68 22 26 22 C26 22.66 26 23.32 26 24 C25.34 24 24.68 24 24 24 C24 24.66 24 25.32 24 26 C23.34 26 22.68 26 22 26 C22.66 26.99 23.32 27.98 24 29 C24 29.99 24 30.98 24 32 C24.66 32 25.32 32 26 32 C30 38.625 30 38.625 30 42 C26.7 42 23.4 42 20 42 C20 41.34 20 40.68 20 40 C19.34 40 18.68 40 18 40 C14 33.375 14 33.375 14 30 C13.34 30 12.68 30 12 30 C12 29.34 12 28.68 12 28 C10.68 28 9.36 28 8 28 C8 32.62 8 37.24 8 42 C5.29120665 43.35439668 2.99066732 43.06501451 0 43 C-0.99728643 35.0716865 -1.15123465 27.23407873 -1.125 19.25 C-1.12886719 18.05761719 -1.13273437 16.86523438 -1.13671875 15.63671875 C-1.13542969 14.48300781 -1.13414062 13.32929688 -1.1328125 12.140625 C-1.13168457 11.10454102 -1.13055664 10.06845703 -1.12939453 9.00097656 C-0.99693131 5.92882964 -0.56750687 3.01956487 0 0 Z M8 8 C8 11.96 8 15.92 8 20 C13.4159661 20.35144861 13.4159661 20.35144861 18.5 18.875 C20.25086427 16.99893022 20.25086427 16.99893022 20.5 14 C20.25086427 11.00106978 20.25086427 11.00106978 18.5 9.125 C14.87739877 7.49482945 11.95453342 7.80227333 8 8 Z " fill="#FFFFFF" transform="translate(283,151)"/>
<path d="M0 0 C3.375 -0.1875 3.375 -0.1875 7 0 C9.38948197 3.58422296 9.30233168 5.37232596 9.4140625 9.63671875 C9.45273438 10.93544922 9.49140625 12.23417969 9.53125 13.57226562 C9.56270517 14.94400573 9.59395251 16.31575061 9.625 17.6875 C9.66319197 19.07098785 9.70224442 20.45445223 9.7421875 21.83789062 C9.83660517 25.2251245 9.92218118 28.61235069 10 32 C13.85462635 33.35605968 16.8956496 34.24143238 21 34 C21 33.34 21 32.68 21 32 C21.66 32 22.32 32 23 32 C22.94670532 30.65252686 22.94670532 30.65252686 22.89233398 29.27783203 C22.76322758 25.94951643 22.63889727 22.62109412 22.51782227 19.29248047 C22.4644041 17.85100177 22.40907482 16.40959259 22.35180664 14.96826172 C22.26989003 12.89826447 22.19481641 10.82811573 22.12109375 8.7578125 C22.0739624 7.5114502 22.02683105 6.26508789 21.97827148 4.98095703 C22 2 22 2 23 0 C25.64 0 28.28 0 31 0 C31.09911652 4.89292532 31.17158399 9.78526221 31.21972656 14.67895508 C31.23980207 16.34247013 31.26706876 18.00591496 31.30175781 19.66918945 C31.35045766 22.0647924 31.37300856 24.45945992 31.390625 26.85546875 C31.41127014 27.5952446 31.43191528 28.33502045 31.45318604 29.09721375 C31.45478572 32.80540547 31.09920373 34.84284242 29.10058594 38.0090332 C27 40 27 40 25 40 C25 40.66 25 41.32 25 42 C17.00181024 44.509236 11.65075903 44.46421652 4 41 C1.9375 39.0625 1.9375 39.0625 1 37 C1 35.68 1 34.36 1 33 C0.34 33 -0.32 33 -1 33 C-2.85483001 6.60179439 -2.85483001 6.60179439 0 0 Z " fill="#FFFFFF" transform="translate(228,151)"/>
<path d="M0 0 C2.9375 0.5 2.9375 0.5 5.9375 2.5 C7.70482122 5.94162553 8.15727786 8.6538875 7.9375 12.5 C8.5975 12.5 9.2575 12.5 9.9375 12.5 C9.9375 14.48 9.9375 16.46 9.9375 18.5 C10.5975 18.5 11.2575 18.5 11.9375 18.5 C11.9375 20.15 11.9375 21.8 11.9375 23.5 C12.5975 23.5 13.2575 23.5 13.9375 23.5 C14.13085938 24.21285156 14.32421875 24.92570312 14.5234375 25.66015625 C15.96162775 30.95013328 17.41602632 36.23336033 18.9375 41.5 C17.9375 42.5 17.9375 42.5 16.08984375 42.59765625 C14.0390625 42.56510417 11.98828125 42.53255208 9.9375 42.5 C6.9375 36.625 6.9375 36.625 6.9375 35.5 C2.6475 35.17 -1.6425 34.84 -6.0625 34.5 C-6.0625 35.16 -6.0625 35.82 -6.0625 36.5 C-6.7225 36.5 -7.3825 36.5 -8.0625 36.5 C-8.0625 38.48 -8.0625 40.46 -8.0625 42.5 C-11.3625 42.5 -14.6625 42.5 -18.0625 42.5 C-17.52524105 39.12294375 -16.95185377 35.803314 -16.0625 32.5 C-15.4025 32.5 -14.7425 32.5 -14.0625 32.5 C-14.26875 31.88125 -14.475 31.2625 -14.6875 30.625 C-14.873125 29.573125 -14.873125 29.573125 -15.0625 28.5 C-14.4025 27.84 -13.7425 27.18 -13.0625 26.5 C-12.23356945 24.27893669 -12.23356945 24.27893669 -11.5625 21.75 C-10.4820205 17.96557942 -9.33682008 14.22493561 -8.0625 10.5 C-7.4025 10.5 -6.7425 10.5 -6.0625 10.5 C-6.31 9.96375 -6.5575 9.4275 -6.8125 8.875 C-7.0625 6.5 -7.0625 6.5 -5.5 3.25 C-3.0625 0.5 -3.0625 0.5 0 0 Z M-0.0625 15.5 C-1.66605101 19.00776784 -2.28286864 21.64354879 -2.0625 25.5 C-3.0525 25.995 -3.0525 25.995 -4.0625 26.5 C-1.4225 26.5 1.2175 26.5 3.9375 26.5 C3.9375 25.18 3.9375 23.86 3.9375 22.5 C3.2775 22.5 2.6175 22.5 1.9375 22.5 C1.9375 20.52 1.9375 18.54 1.9375 16.5 C1.2775 16.17 0.6175 15.84 -0.0625 15.5 Z " fill="#FFFFFF" transform="translate(137.0625,150.5)"/>
<path d="M0 0 C0.75603516 -0.01224609 1.51207031 -0.02449219 2.29101562 -0.03710938 C6.86444624 -0.04900902 10.50652494 0.45000129 14.8125 2.1875 C14.8125 2.8475 14.8125 3.5075 14.8125 4.1875 C15.43125 4.455625 16.05 4.72375 16.6875 5 C18.8125 6.1875 18.8125 6.1875 20.8125 9.1875 C21.0078125 11.66796875 21.0078125 11.66796875 20.9375 14.375 C20.91945312 15.27605469 20.90140625 16.17710937 20.8828125 17.10546875 C20.85960937 17.79253906 20.83640625 18.47960937 20.8125 19.1875 C20.1525 19.1875 19.4925 19.1875 18.8125 19.1875 C18.8125 20.1775 18.8125 21.1675 18.8125 22.1875 C18.1525 22.1875 17.4925 22.1875 16.8125 22.1875 C16.8125 22.8475 16.8125 23.5075 16.8125 24.1875 C16.1525 24.1875 15.4925 24.1875 14.8125 24.1875 C14.8125 24.8475 14.8125 25.5075 14.8125 26.1875 C12.85485617 26.38206705 10.89634679 26.56794247 8.9375 26.75 C7.84695312 26.85441406 6.75640625 26.95882812 5.6328125 27.06640625 C2.8125 27.1875 2.8125 27.1875 0.8125 26.1875 C0.8125 31.4675 0.8125 36.7475 0.8125 42.1875 C-5.9375 43.3125 -5.9375 43.3125 -10.1875 41.1875 C-10.06957014 35.50904468 -9.94534597 29.83077605 -9.81518555 24.15258789 C-9.77176959 22.21935815 -9.73009958 20.28608841 -9.69018555 18.3527832 C-9.63264369 15.58011798 -9.5689038 12.80765543 -9.50390625 10.03515625 C-9.48719376 9.16536636 -9.47048126 8.29557648 -9.45326233 7.39942932 C-9.24893343 -0.80390396 -7.54896932 0.00627512 0 0 Z M0.8125 8.1875 C0.8125 11.4875 0.8125 14.7875 0.8125 18.1875 C4.1125 18.1875 7.4125 18.1875 10.8125 18.1875 C10.8125 15.5475 10.8125 12.9075 10.8125 10.1875 C9.8225 10.1875 8.8325 10.1875 7.8125 10.1875 C7.8125 9.5275 7.8125 8.8675 7.8125 8.1875 C5.5025 8.1875 3.1925 8.1875 0.8125 8.1875 Z " fill="#FFFFFF" transform="translate(186.1875,150.8125)"/>
<path d="M0 0 C1.32 0 2.64 0 4 0 C6.21224819 3.31837229 6.35715143 4.16062208 6 8 C5.39072482 10.01822402 4.73519522 12.02416285 4 14 C3.34 14 2.68 14 2 14 C2 17.3 2 20.6 2 24 C0.68 24 -0.64 24 -2 24 C-2 23.34 -2 22.68 -2 22 C-2.66 22 -3.32 22 -4 22 C-4.35933569 16.0110718 -3.91447482 12.36263366 -1 7 C-0.2863276 3.26228166 -0.2863276 3.26228166 0 0 Z " fill="#FFFFFF" transform="translate(203,17)"/>
<path d="M0 0 C1.98 0 3.96 0 6 0 C6.32002454 6.66125149 6.19356469 11.02942253 3 17 C3.30087716 20.22828237 3.30087716 20.22828237 4 23 C3 24 3 24 0.4375 24.0625 C-0.366875 24.041875 -1.17125 24.02125 -2 24 C-2.35865867 9.63372752 -2.35865867 9.63372752 0 3 C0 2.01 0 1.02 0 0 Z " fill="#FFFFFF" transform="translate(223,17)"/>
</svg>
