<?xml version="1.0" encoding="UTF-8"?>
<!DOCTYPE svg PUBLIC "-//W3C//DTD SVG 1.1//EN" "http://www.w3.org/Graphics/SVG/1.1/DTD/svg11.dtd">
<svg xmlns="http://www.w3.org/2000/svg" version="1.1" width="500px" height="500px" style="shape-rendering:geometricPrecision; text-rendering:geometricPrecision; image-rendering:optimizeQuality; fill-rule:evenodd; clip-rule:evenodd" xmlns:xlink="http://www.w3.org/1999/xlink">
<g><path style="opacity:0.004" fill="#000000" d="M 199.5,105.5 C 198.833,104.167 198.833,104.167 199.5,105.5 Z"/></g>
<g><path style="opacity:0.006" fill="#070010" d="M 178.5,132.5 C 179.629,134.628 179.796,136.961 179,139.5C 178.503,137.19 178.337,134.857 178.5,132.5 Z"/></g>
<g><path style="opacity:1" fill="#715cdb" d="M 305.5,141.5 C 325.457,141.192 345.457,141.692 365.5,143C 371.462,143.358 377.129,144.525 382.5,146.5C 377.156,146.666 371.823,146.499 366.5,146C 357.807,145.047 349.14,143.881 340.5,142.5C 327.177,143.412 313.844,144.246 300.5,145C 299.756,146.039 298.756,146.539 297.5,146.5C 299.53,143.818 302.197,142.151 305.5,141.5 Z"/></g>
<g><path style="opacity:1" fill="#7b5efb" d="M 178.5,143.5 C 180.484,148.44 182.484,153.44 184.5,158.5C 185.552,158.351 186.552,158.517 187.5,159C 189.706,162.934 193.039,165.101 197.5,165.5C 197.833,165.5 198.167,165.5 198.5,165.5C 199.344,167.759 201.011,168.759 203.5,168.5C 203.827,181.84 203.993,195.174 204,208.5C 203.64,210.421 202.806,212.088 201.5,213.5C 201.624,214.107 201.957,214.44 202.5,214.5C 199.729,218.39 196.729,222.057 193.5,225.5C 191.741,226.871 189.741,227.871 187.5,228.5C 186.201,230.758 185.201,233.092 184.5,235.5C 183.5,235.5 182.5,235.5 181.5,235.5C 181.451,232.626 181.784,229.792 182.5,227C 182.327,224.979 181.66,223.146 180.5,221.5C 177.188,220.382 173.855,220.382 170.5,221.5C 170.843,219.517 170.176,218.183 168.5,217.5C 167.833,216.5 167.167,215.5 166.5,214.5C 165.892,212.01 164.225,210.676 161.5,210.5C 157.339,211.04 153.339,211.707 149.5,212.5C 147.589,212.574 146.422,213.574 146,215.5C 145.692,214.692 145.192,214.025 144.5,213.5C 143.41,214.391 143.41,215.391 144.5,216.5C 143.311,217.429 141.978,217.762 140.5,217.5C 140.015,224.243 141.682,230.243 145.5,235.5C 146.06,237.801 146.56,240.134 147,242.5C 150.108,246.089 152.941,249.755 155.5,253.5C 158.366,257.898 160.699,262.565 162.5,267.5C 162.755,269.967 163.755,271.967 165.5,273.5C 165.343,274.873 165.51,276.207 166,277.5C 166.876,279.635 168.376,280.969 170.5,281.5C 175.175,287.53 179.842,293.53 184.5,299.5C 188.5,305.5 193.5,310.5 199.5,314.5C 204.141,318.805 208.807,323.139 213.5,327.5C 213.13,331.233 212.463,334.899 211.5,338.5C 210.5,338.5 209.5,338.5 208.5,338.5C 207.394,344.137 206.394,349.804 205.5,355.5C 204.57,360.62 203.237,365.62 201.5,370.5C 198.828,372.391 197.828,375.058 198.5,378.5C 193.167,378.5 187.833,378.5 182.5,378.5C 182.334,375.832 181.334,373.498 179.5,371.5C 180.491,369.877 179.824,368.877 177.5,368.5C 176.548,366.955 176.215,365.288 176.5,363.5C 173.215,363.79 170.215,363.123 167.5,361.5C 167.5,361.167 167.5,360.833 167.5,360.5C 166.29,354.631 162.956,350.631 157.5,348.5C 151.091,340.764 145.091,332.764 139.5,324.5C 136.599,319.865 134.432,315.198 133,310.5C 132.667,310.833 132.333,311.167 132,311.5C 131.808,309.423 131.308,307.423 130.5,305.5C 127.702,309.433 126.369,308.766 126.5,303.5C 125.167,303.5 123.833,303.5 122.5,303.5C 121.236,301.73 119.736,300.063 118,298.5C 117.517,299.448 117.351,300.448 117.5,301.5C 115.598,304.337 114.931,307.671 115.5,311.5C 115.15,316.54 113.816,321.206 111.5,325.5C 111.167,325.5 110.833,325.5 110.5,325.5C 109.849,324.909 109.182,324.243 108.5,323.5C 107.534,325.396 107.201,327.396 107.5,329.5C 101.893,330.046 100.56,332.713 103.5,337.5C 102.288,339.923 100.288,340.923 97.5,340.5C 97.762,341.978 97.4287,343.311 96.5,344.5C 94.2534,345.374 91.9201,345.708 89.5,345.5C 87.9476,348.796 88.281,351.796 90.5,354.5C 90.1583,355.338 89.4916,355.672 88.5,355.5C 86.6089,356.536 84.7755,356.536 83,355.5C 82.5172,356.448 82.3505,357.448 82.5,358.5C 80.7231,358.786 79.0564,359.453 77.5,360.5C 74.2995,359.193 73.6329,360.193 75.5,363.5C 67.2898,367.39 58.6232,370.057 49.5,371.5C 48.0813,370.549 46.4147,370.216 44.5,370.5C 44.8214,364.974 44.4881,359.64 43.5,354.5C 43.5,353.833 43.8333,353.5 44.5,353.5C 45.8671,344.701 46.5337,335.701 46.5,326.5C 46.244,322.731 46.5773,319.064 47.5,315.5C 50.053,307.933 51.2197,299.933 51,291.5C 51.3333,291.833 51.6667,292.167 52,292.5C 52.0077,280.243 52.8411,268.076 54.5,256C 54.3333,254.5 54.1667,253 54,251.5C 53.6174,250.944 53.1174,250.611 52.5,250.5C 52.5,249.833 52.8333,249.5 53.5,249.5C 54.0521,244.507 54.8854,239.507 56,234.5C 56.4997,227.174 56.6663,219.841 56.5,212.5C 57.1174,212.389 57.6174,212.056 58,211.5C 58.2483,203.053 59.7483,194.886 62.5,187C 62.3552,186.228 62.0219,185.561 61.5,185C 62.4553,181.901 63.2886,178.734 64,175.5C 67.5017,173.194 69.0017,169.86 68.5,165.5C 69.8195,164.058 71.4862,163.392 73.5,163.5C 73.4501,165.59 74.4501,166.923 76.5,167.5C 76.8333,167 77.1667,166.5 77.5,166C 76.3802,164.263 75.3802,162.429 74.5,160.5C 76.6297,159.125 79.2963,158.125 82.5,157.5C 82.4208,156.07 82.7542,154.736 83.5,153.5C 85.9774,151.745 88.6441,150.912 91.5,151C 87.9561,152.253 87.6228,154.087 90.5,156.5C 93.5027,155.915 96.5027,155.248 99.5,154.5C 97.4904,153.935 95.8237,152.935 94.5,151.5C 97.7746,151.575 101.108,151.242 104.5,150.5C 104.833,150.167 105.167,149.833 105.5,149.5C 102.124,148.075 101.957,146.741 105,145.5C 107.315,146.875 109.815,147.875 112.5,148.5C 113.429,147.311 113.762,145.978 113.5,144.5C 117.167,144.5 120.833,144.5 124.5,144.5C 125.207,147.786 125.54,151.119 125.5,154.5C 124.12,154.962 123.453,155.962 123.5,157.5C 124.438,165.464 124.771,173.464 124.5,181.5C 124.5,181.833 124.5,182.167 124.5,182.5C 122.539,189.087 121.872,196.087 122.5,203.5C 122.351,204.552 122.517,205.552 123,206.5C 126.699,201.973 130.532,197.639 134.5,193.5C 137.056,192.457 139.223,190.79 141,188.5C 146.449,182.896 151.283,176.896 155.5,170.5C 155.328,169.508 155.662,168.842 156.5,168.5C 156.435,168.938 156.601,169.272 157,169.5C 161.477,165.837 164.977,161.504 167.5,156.5C 170.798,151.868 174.464,147.534 178.5,143.5 Z"/></g>
<g><path style="opacity:1" fill="#7c5efb" d="M 382.5,146.5 C 382.833,146.5 383.167,146.5 383.5,146.5C 384.347,147.966 385.68,148.8 387.5,149C 385.071,149.451 384.904,150.285 387,151.5C 389.381,150.565 391.881,150.232 394.5,150.5C 394.5,151.5 394.5,152.5 394.5,153.5C 396.942,153.354 397.609,154.187 396.5,156C 397.025,156.692 397.692,157.192 398.5,157.5C 399.603,155.896 401.103,154.896 403,154.5C 406.543,156.856 410.377,158.522 414.5,159.5C 414.859,161.371 415.859,162.871 417.5,164C 415.771,165.789 415.104,167.956 415.5,170.5C 417.6,170.523 419.433,169.856 421,168.5C 421.5,168.833 422,169.167 422.5,169.5C 421.653,170.845 420.487,171.845 419,172.5C 418.517,173.448 418.351,174.448 418.5,175.5C 420.912,175.669 423.079,175.003 425,173.5C 427.368,174.717 429.868,175.551 432.5,176C 435.049,178.259 436.716,181.092 437.5,184.5C 438.274,185.711 439.107,185.711 440,184.5C 439.711,188.207 439.878,191.874 440.5,195.5C 442.102,194.45 442.935,195.117 443,197.5C 443.219,196.062 443.719,194.729 444.5,193.5C 446.737,195.647 448.737,197.98 450.5,200.5C 449.554,202.258 449.554,203.925 450.5,205.5C 451.865,204.193 453.198,204.193 454.5,205.5C 454.5,205.833 454.5,206.167 454.5,206.5C 455.59,210.778 456.59,215.112 457.5,219.5C 458.057,221.332 459.057,222.665 460.5,223.5C 461.167,223.5 461.5,223.833 461.5,224.5C 460.76,230.799 460.76,237.132 461.5,243.5C 457.538,242.278 455.871,243.945 456.5,248.5C 455.5,248.5 454.5,248.5 453.5,248.5C 453.5,250.167 453.5,251.833 453.5,253.5C 451.005,254.199 448.672,255.199 446.5,256.5C 446.881,258.942 446.214,259.609 444.5,258.5C 443.183,260.159 441.517,261.326 439.5,262C 439.957,262.414 440.291,262.914 440.5,263.5C 437.204,264.391 434.537,265.725 432.5,267.5C 432.5,268.5 432.5,269.5 432.5,270.5C 428.424,270.68 424.591,271.68 421,273.5C 420.383,274.449 420.549,275.282 421.5,276C 420.207,276.49 418.873,276.657 417.5,276.5C 417.719,275.325 417.386,274.325 416.5,273.5C 415.253,275.006 415.253,276.506 416.5,278C 414.5,278.333 412.5,278.667 410.5,279C 409.922,280.417 408.922,281.25 407.5,281.5C 405.135,282.008 402.801,282.675 400.5,283.5C 398.914,281.564 397.248,280.564 395.5,280.5C 397.991,279.459 397.991,278.626 395.5,278C 396.167,277.667 396.833,277.333 397.5,277C 396.484,276.481 395.818,275.647 395.5,274.5C 397.02,268.781 398.02,262.947 398.5,257C 397.137,251.733 396.137,246.4 395.5,241C 396.022,240.05 396.689,239.216 397.5,238.5C 396.726,237.289 395.893,237.289 395,238.5C 394.221,233.079 392.387,228.079 389.5,223.5C 387.955,222.548 386.288,222.215 384.5,222.5C 384.714,220.856 384.38,219.356 383.5,218C 381.925,218.379 380.425,218.212 379,217.5C 378.508,216.451 378.674,215.451 379.5,214.5C 376.914,213.52 374.247,213.187 371.5,213.5C 370.587,211.914 370.587,210.414 371.5,209C 370.584,208.626 369.75,208.126 369,207.5C 364.615,209.254 360.782,208.421 357.5,205C 358.167,204.667 358.833,204.333 359.5,204C 357.238,203.358 355.071,202.525 353,201.5C 352.626,202.416 352.126,203.25 351.5,204C 343.5,204.333 335.5,204.667 327.5,205C 322.493,206.115 317.493,206.948 312.5,207.5C 311.247,214.187 309.247,220.853 306.5,227.5C 307.393,234.598 307.56,241.932 307,249.5C 307.037,245.303 305.537,241.97 302.5,239.5C 300.956,233.579 299.623,227.579 298.5,221.5C 297.808,222.025 297.308,222.692 297,223.5C 296.504,221.965 296.67,220.465 297.5,219C 297.167,218.5 296.833,218 296.5,217.5C 293.849,219.003 292.516,218.17 292.5,215C 293.285,213.049 294.285,211.215 295.5,209.5C 295.167,209.167 294.833,208.833 294.5,208.5C 292.736,211.177 291.57,210.844 291,207.5C 290.695,195.939 291.028,184.272 292,172.5C 292.402,171.128 292.902,169.795 293.5,168.5C 291.107,165.18 291.44,162.013 294.5,159C 292.519,157.732 290.519,156.566 288.5,155.5C 289.52,152.157 291.854,150.157 295.5,149.5C 296.612,148.735 297.279,147.735 297.5,146.5C 298.756,146.539 299.756,146.039 300.5,145C 313.844,144.246 327.177,143.412 340.5,142.5C 349.14,143.881 357.807,145.047 366.5,146C 371.823,146.499 377.156,146.666 382.5,146.5 Z"/></g>
<g><path style="opacity:1" fill="#795fed" d="M 126.5,142.5 C 126.817,146.702 126.483,150.702 125.5,154.5C 125.54,151.119 125.207,147.786 124.5,144.5C 120.833,144.5 117.167,144.5 113.5,144.5C 113.762,145.978 113.429,147.311 112.5,148.5C 109.815,147.875 107.315,146.875 105,145.5C 101.957,146.741 102.124,148.075 105.5,149.5C 105.167,149.833 104.833,150.167 104.5,150.5C 101.108,151.242 97.7746,151.575 94.5,151.5C 95.8237,152.935 97.4904,153.935 99.5,154.5C 96.5027,155.248 93.5027,155.915 90.5,156.5C 87.6228,154.087 87.9561,152.253 91.5,151C 88.6441,150.912 85.9774,151.745 83.5,153.5C 82.7542,154.736 82.4208,156.07 82.5,157.5C 79.2963,158.125 76.6297,159.125 74.5,160.5C 75.3802,162.429 76.3802,164.263 77.5,166C 77.1667,166.5 76.8333,167 76.5,167.5C 74.4501,166.923 73.4501,165.59 73.5,163.5C 71.4862,163.392 69.8195,164.058 68.5,165.5C 78.1,152.459 91.1,144.959 107.5,143C 112.509,142.59 117.509,142.09 122.5,141.5C 124.045,141.511 125.378,141.844 126.5,142.5 Z"/></g>
<g><path style="opacity:1" fill="#7962e4" d="M 383.5,146.5 C 394.716,148.948 405.05,153.281 414.5,159.5C 410.377,158.522 406.543,156.856 403,154.5C 401.103,154.896 399.603,155.896 398.5,157.5C 397.692,157.192 397.025,156.692 396.5,156C 397.609,154.187 396.942,153.354 394.5,153.5C 394.5,152.5 394.5,151.5 394.5,150.5C 391.881,150.232 389.381,150.565 387,151.5C 384.904,150.285 385.071,149.451 387.5,149C 385.68,148.8 384.347,147.966 383.5,146.5 Z"/></g>
<g><path style="opacity:0.975" fill="#6e5ccf" d="M 126.5,142.5 C 127.497,142.47 128.164,142.97 128.5,144C 127.066,156.629 125.733,169.129 124.5,181.5C 124.771,173.464 124.438,165.464 123.5,157.5C 123.453,155.962 124.12,154.962 125.5,154.5C 126.483,150.702 126.817,146.702 126.5,142.5 Z"/></g>
<g><path style="opacity:1" fill="#6851c1" d="M 178.5,143.5 C 178.842,142.662 179.508,142.328 180.5,142.5C 182.256,147.799 184.756,152.799 188,157.5C 190.772,160.783 193.939,163.45 197.5,165.5C 193.039,165.101 189.706,162.934 187.5,159C 186.552,158.517 185.552,158.351 184.5,158.5C 182.484,153.44 180.484,148.44 178.5,143.5 Z"/></g>
<g><path style="opacity:0.929" fill="#7766cf" d="M 167.5,156.5 C 164.977,161.504 161.477,165.837 157,169.5C 156.601,169.272 156.435,168.938 156.5,168.5C 160.176,164.459 163.843,160.459 167.5,156.5 Z"/></g>
<g><path style="opacity:1" fill="#715ace" d="M 297.5,146.5 C 297.279,147.735 296.612,148.735 295.5,149.5C 291.854,150.157 289.52,152.157 288.5,155.5C 288.5,173.833 288.5,192.167 288.5,210.5C 287.503,191.007 287.17,171.34 287.5,151.5C 290.789,149.855 294.123,148.189 297.5,146.5 Z"/></g>
<g><path style="opacity:1" fill="#785fee" d="M 414.5,159.5 C 432.481,170.798 445.814,186.131 454.5,205.5C 453.198,204.193 451.865,204.193 450.5,205.5C 449.554,203.925 449.554,202.258 450.5,200.5C 448.737,197.98 446.737,195.647 444.5,193.5C 443.719,194.729 443.219,196.062 443,197.5C 442.935,195.117 442.102,194.45 440.5,195.5C 439.878,191.874 439.711,188.207 440,184.5C 439.107,185.711 438.274,185.711 437.5,184.5C 436.716,181.092 435.049,178.259 432.5,176C 429.868,175.551 427.368,174.717 425,173.5C 423.079,175.003 420.912,175.669 418.5,175.5C 418.351,174.448 418.517,173.448 419,172.5C 420.487,171.845 421.653,170.845 422.5,169.5C 422,169.167 421.5,168.833 421,168.5C 419.433,169.856 417.6,170.523 415.5,170.5C 415.104,167.956 415.771,165.789 417.5,164C 415.859,162.871 414.859,161.371 414.5,159.5 Z"/></g>
<g><path style="opacity:1" fill="#795eef" d="M 288.5,155.5 C 290.519,156.566 292.519,157.732 294.5,159C 291.44,162.013 291.107,165.18 293.5,168.5C 292.902,169.795 292.402,171.128 292,172.5C 291.028,184.272 290.695,195.939 291,207.5C 291.57,210.844 292.736,211.177 294.5,208.5C 294.833,208.833 295.167,209.167 295.5,209.5C 294.285,211.215 293.285,213.049 292.5,215C 292.516,218.17 293.849,219.003 296.5,217.5C 296.833,218 297.167,218.5 297.5,219C 296.67,220.465 296.504,221.965 297,223.5C 297.308,222.692 297.808,222.025 298.5,221.5C 299.623,227.579 300.956,233.579 302.5,239.5C 298.425,231.017 294.092,222.684 289.5,214.5C 289.167,213.167 288.833,211.833 288.5,210.5C 288.5,192.167 288.5,173.833 288.5,155.5 Z"/></g>
<g><path style="opacity:1" fill="#23164b" d="M 287.5,151.5 C 287.17,171.34 287.503,191.007 288.5,210.5C 288.833,211.833 289.167,213.167 289.5,214.5C 288.85,214.196 288.183,213.863 287.5,213.5C 286.172,192.671 286.172,172.004 287.5,151.5 Z"/></g>
<g><path style="opacity:1" fill="#2f2163" d="M 201.5,166.5 C 202.833,166.5 204.167,166.5 205.5,166.5C 206.712,180.989 206.712,195.323 205.5,209.5C 205.5,195.49 205.166,181.49 204.5,167.5C 203.209,167.737 202.209,167.404 201.5,166.5 Z"/></g>
<g><path style="opacity:0.855" fill="#7665d0" d="M 155.5,170.5 C 151.283,176.896 146.449,182.896 141,188.5C 139.223,190.79 137.056,192.457 134.5,193.5C 141.159,185.508 148.159,177.841 155.5,170.5 Z"/></g>
<g><path style="opacity:1" fill="#060406" d="M 305.5,141.5 C 302.197,142.151 299.53,143.818 297.5,146.5C 294.123,148.189 290.789,149.855 287.5,151.5C 286.172,172.004 286.172,192.671 287.5,213.5C 288.183,213.863 288.85,214.196 289.5,214.5C 294.092,222.684 298.425,231.017 302.5,239.5C 302.833,241.5 303.167,243.5 303.5,245.5C 303.923,252.5 304.423,259.5 305,266.5C 305.717,265.956 306.217,265.289 306.5,264.5C 308.727,263.599 309.727,261.933 309.5,259.5C 311.104,258.713 311.771,257.38 311.5,255.5C 314.544,251.398 316.544,246.731 317.5,241.5C 315.974,235.619 314.308,229.785 312.5,224C 312.395,221.822 313.061,219.988 314.5,218.5C 315.492,218.672 316.158,218.338 316.5,217.5C 318.722,217.178 320.556,217.845 322,219.5C 324.255,216.553 325.088,213.387 324.5,210C 325.942,209.623 326.942,208.79 327.5,207.5C 332.5,207.5 337.5,207.5 342.5,207.5C 344.734,211.047 347.234,214.38 350,217.5C 350.466,224.936 348.799,231.936 345,238.5C 343.03,241.968 340.864,245.301 338.5,248.5C 338.709,249.086 339.043,249.586 339.5,250C 335.982,256.208 332.649,262.542 329.5,269C 323.889,280.096 317.223,290.929 309.5,301.5C 307.973,301.427 306.973,302.094 306.5,303.5C 302.811,307.808 299.311,312.475 296,317.5C 295.517,318.448 295.351,319.448 295.5,320.5C 291.71,322.471 289.71,325.638 289.5,330C 290.892,334.613 292.226,339.113 293.5,343.5C 294.755,348.776 295.755,354.109 296.5,359.5C 296.947,366.731 298.28,373.731 300.5,380.5C 298.143,380.663 295.81,380.497 293.5,380C 293.957,379.586 294.291,379.086 294.5,378.5C 290.424,361.695 286.424,344.861 282.5,328C 283.202,325.293 284.369,322.793 286,320.5C 297.825,304.851 309.158,288.851 320,272.5C 325.145,263.209 329.479,253.542 333,243.5C 335.167,240.667 337.333,237.833 339.5,235C 338.949,233.602 338.616,232.268 338.5,231C 339.167,230.667 339.833,230.333 340.5,230C 336.597,228.61 332.93,226.777 329.5,224.5C 329.002,228.799 326.836,230.466 323,229.5C 321.282,230.031 321.115,230.698 322.5,231.5C 323.727,234.566 324.727,237.733 325.5,241C 323.696,247.926 321.029,254.426 317.5,260.5C 315.656,261.915 314.989,263.581 315.5,265.5C 312.487,268.349 309.82,271.515 307.5,275C 307.833,275.333 308.167,275.667 308.5,276C 307.198,278.022 305.532,279.522 303.5,280.5C 294.33,290.219 284.33,298.385 273.5,305C 271.385,305.557 269.385,306.391 267.5,307.5C 258.194,316.968 248.361,325.968 238,334.5C 236.398,336.307 235.064,338.307 234,340.5C 233.316,345.822 232.816,351.156 232.5,356.5C 230.585,364.251 229.585,372.251 229.5,380.5C 226.833,380.5 224.167,380.5 221.5,380.5C 222.923,365.452 224.756,350.452 227,335.5C 233.504,328.663 240.338,322.163 247.5,316C 245.257,313.512 243.257,310.846 241.5,308C 221.516,304.505 204.516,296.171 190.5,283C 187.231,279.248 184.231,275.415 181.5,271.5C 182.777,269.086 184.443,268.919 186.5,271C 183.833,272.333 183.833,273.667 186.5,275C 188.676,275.163 190.509,275.996 192,277.5C 192.951,277.116 193.784,276.783 194.5,276.5C 195.5,276.5 196.5,276.5 197.5,276.5C 198.813,279.685 201.479,282.519 205.5,285C 206.167,285.667 206.833,285.667 207.5,285C 206.748,284.329 206.414,283.496 206.5,282.5C 207.833,282.167 207.833,281.833 206.5,281.5C 205.797,279.284 204.464,277.451 202.5,276C 203.634,274.984 203.301,274.317 201.5,274C 202.451,273.282 202.617,272.449 202,271.5C 201.346,272.696 200.846,272.696 200.5,271.5C 200.833,270.833 201.167,270.167 201.5,269.5C 198.12,258.663 197.62,247.663 200,236.5C 202.19,228.003 203.69,219.67 204.5,211.5C 204.833,210.833 205.167,210.167 205.5,209.5C 206.712,195.323 206.712,180.989 205.5,166.5C 204.167,166.5 202.833,166.5 201.5,166.5C 200.609,165.89 199.609,165.557 198.5,165.5C 198.167,165.5 197.833,165.5 197.5,165.5C 193.939,163.45 190.772,160.783 188,157.5C 184.756,152.799 182.256,147.799 180.5,142.5C 178.707,125.746 185.041,113.413 199.5,105.5C 202.475,105.287 205.142,104.287 207.5,102.5C 210.538,103.731 213.538,103.564 216.5,102C 222.025,97.1378 227.525,92.3044 233,87.5C 233.333,87.8333 233.667,88.1667 234,88.5C 243.253,83.4324 252.586,82.4324 262,85.5C 263.333,85.5 264.667,85.5 266,85.5C 266.508,87.9042 267.675,88.5709 269.5,87.5C 271.864,90.0887 274.364,92.422 277,94.5C 277.667,93.8333 278.333,93.1667 279,92.5C 283.639,92.1944 287.972,92.1944 292,92.5C 308.241,99.644 314.574,112.311 311,130.5C 309.156,134.189 307.322,137.855 305.5,141.5 Z M 297.5,137.5 C 295.09,138.5 292.757,140.167 290.5,142.5C 290.44,143.043 290.107,143.376 289.5,143.5C 288.833,142.833 288.167,142.167 287.5,141.5C 286.676,138.215 286.176,134.882 286,131.5C 284.12,135.513 282.62,139.679 281.5,144C 281.833,144.333 282.167,144.667 282.5,145C 280.698,156.251 279.865,167.751 280,179.5C 279.667,178.167 279.333,176.833 279,175.5C 276.803,178.874 273.969,179.374 270.5,177C 268.113,176.024 266.946,174.191 267,171.5C 266.487,157.718 265.82,144.052 265,130.5C 264.333,129.167 263.667,129.167 263,130.5C 261.896,144.823 261.063,159.156 260.5,173.5C 255.195,174.194 249.862,174.528 244.5,174.5C 243.004,166.513 241.504,158.513 240,150.5C 239.271,146.623 239.438,142.789 240.5,139C 240.056,137.238 239.556,137.405 239,139.5C 238.667,137.833 238.333,136.167 238,134.5C 236.957,137.375 235.79,140.208 234.5,143C 235.724,152.519 237.058,162.019 238.5,171.5C 239.404,172.209 239.737,173.209 239.5,174.5C 235.225,174.098 231.058,174.098 227,174.5C 222.579,160.723 219.579,146.723 218,132.5C 216.835,138.712 216.002,145.046 215.5,151.5C 217.457,158.664 219.123,165.997 220.5,173.5C 218.678,174.281 218.011,175.448 218.5,177C 216.187,177.662 213.854,178.162 211.5,178.5C 211.5,172.833 211.5,167.167 211.5,161.5C 208.09,161.543 204.757,161.043 201.5,160C 202.34,158.334 201.84,158.167 200,159.5C 191.848,154.174 187.681,146.841 187.5,137.5C 188.443,122.224 196.443,113.224 211.5,110.5C 214.083,110.981 216.583,111.648 219,112.5C 225.034,103.797 232.867,97.297 242.5,93C 255.594,89.486 266.428,92.986 275,103.5C 287.149,98.3362 296.482,101.336 303,112.5C 304.929,117.363 304.762,122.029 302.5,126.5C 302.709,127.086 303.043,127.586 303.5,128C 302.362,131.79 300.362,134.957 297.5,137.5 Z M 261.5,173.5 C 262.773,174.077 262.773,174.743 261.5,175.5C 260.537,175.03 260.537,174.363 261.5,173.5 Z M 240.5,181.5 C 254.125,181.732 267.458,183.732 280.5,187.5C 280.666,192.844 280.499,198.177 280,203.5C 279.316,199.907 277.816,199.573 275.5,202.5C 274.406,200.697 272.739,200.364 270.5,201.5C 251.149,197.979 232.149,199.312 213.5,205.5C 212.167,199.167 212.167,192.833 213.5,186.5C 222.439,183.8 231.439,182.133 240.5,181.5 Z M 283.5,217.5 C 282.167,217.833 282.167,218.167 283.5,218.5C 293.269,232.641 298.102,248.308 298,265.5C 293.908,280.42 284.741,290.754 270.5,296.5C 265.129,298.642 259.129,299.975 252.5,300.5C 246.512,299.991 241.179,298.658 236.5,296.5C 214.458,286.483 204.625,268.816 207,243.5C 209.128,233.861 211.128,224.194 213,214.5C 235.192,206.221 257.692,205.388 280.5,212C 281.758,213.741 282.758,215.574 283.5,217.5 Z M 312.5,207.5 C 317.5,207.5 322.5,207.5 327.5,207.5C 326.942,208.79 325.942,209.623 324.5,210C 325.088,213.387 324.255,216.553 322,219.5C 320.556,217.845 318.722,217.178 316.5,217.5C 315.614,216.224 314.614,216.224 313.5,217.5C 313.624,218.107 313.957,218.44 314.5,218.5C 313.061,219.988 312.395,221.822 312.5,224C 314.308,229.785 315.974,235.619 317.5,241.5C 316.544,246.731 314.544,251.398 311.5,255.5C 311.5,244.167 311.5,232.833 311.5,221.5C 312.383,216.897 312.717,212.23 312.5,207.5 Z"/></g>
<g><path style="opacity:0.012" fill="#000000" d="M 238.5,171.5 C 238.209,172.649 237.376,173.316 236,173.5C 235.167,173.333 234.333,173.167 233.5,173C 235.154,172.392 236.821,171.892 238.5,171.5 Z"/></g>
<g><path style="opacity:0.983" fill="#765ee0" d="M 68.5,165.5 C 69.0017,169.86 67.5017,173.194 64,175.5C 63.2886,178.734 62.4553,181.901 61.5,185C 62.0219,185.561 62.3552,186.228 62.5,187C 59.7483,194.886 58.2483,203.053 58,211.5C 57.6174,212.056 57.1174,212.389 56.5,212.5C 56.0703,199.031 58.237,186.031 63,173.5C 64.3063,170.379 66.1397,167.713 68.5,165.5 Z"/></g>
<g><path style="opacity:0.533" fill="#7662cd" d="M 124.5,182.5 C 124.65,189.721 123.983,196.721 122.5,203.5C 121.872,196.087 122.539,189.087 124.5,182.5 Z"/></g>
<g><path style="opacity:1" fill="#6f59cc" d="M 198.5,165.5 C 199.609,165.557 200.609,165.89 201.5,166.5C 202.209,167.404 203.209,167.737 204.5,167.5C 205.166,181.49 205.5,195.49 205.5,209.5C 205.167,210.167 204.833,210.833 204.5,211.5C 203.833,212.5 203.167,213.5 202.5,214.5C 201.957,214.44 201.624,214.107 201.5,213.5C 202.806,212.088 203.64,210.421 204,208.5C 203.993,195.174 203.827,181.84 203.5,168.5C 201.011,168.759 199.344,167.759 198.5,165.5 Z"/></g>
<g><path style="opacity:1" fill="#745ddf" d="M 371.5,213.5 C 362.333,209.249 352.667,207.249 342.5,207.5C 337.5,207.5 332.5,207.5 327.5,207.5C 322.5,207.5 317.5,207.5 312.5,207.5C 317.493,206.948 322.493,206.115 327.5,205C 335.5,204.667 343.5,204.333 351.5,204C 352.126,203.25 352.626,202.416 353,201.5C 355.071,202.525 357.238,203.358 359.5,204C 358.833,204.333 358.167,204.667 357.5,205C 360.782,208.421 364.615,209.254 369,207.5C 369.75,208.126 370.584,208.626 371.5,209C 370.587,210.414 370.587,211.914 371.5,213.5 Z"/></g>
<g><path style="opacity:1" fill="#1b1243" d="M 166.5,214.5 C 161.03,212.229 155.363,211.896 149.5,213.5C 149.5,213.167 149.5,212.833 149.5,212.5C 153.339,211.707 157.339,211.04 161.5,210.5C 164.225,210.676 165.892,212.01 166.5,214.5 Z"/></g>
<g><path style="opacity:0.996" fill="#08050b" d="M 166.5,214.5 C 166.647,217.443 167.313,220.276 168.5,223C 166.955,224.641 167.289,225.807 169.5,226.5C 171.451,225.744 173.284,225.411 175,225.5C 176.423,230.621 177.423,230.621 178,225.5C 178.497,227.81 178.663,230.143 178.5,232.5C 176.946,236.197 175.612,240.03 174.5,244C 174.525,245.876 175.191,247.376 176.5,248.5C 177.58,250.996 178.914,253.33 180.5,255.5C 179.427,256.251 179.26,257.251 180,258.5C 182.312,263.96 185.812,268.293 190.5,271.5C 192.543,272.579 193.876,274.246 194.5,276.5C 193.784,276.783 192.951,277.116 192,277.5C 190.509,275.996 188.676,275.163 186.5,275C 183.833,273.667 183.833,272.333 186.5,271C 184.443,268.919 182.777,269.086 181.5,271.5C 179.863,269.684 178.363,267.684 177,265.5C 176.667,265.833 176.333,266.167 176,266.5C 175.802,264.618 175.302,262.952 174.5,261.5C 171.96,255.587 169.293,249.754 166.5,244C 168.037,242.89 168.703,241.39 168.5,239.5C 167.127,239.657 165.793,239.49 164.5,239C 165.167,238.667 165.833,238.333 166.5,238C 163.371,237.883 162.205,236.383 163,233.5C 165.314,231.631 165.647,229.631 164,227.5C 162.155,229.35 160.155,229.683 158,228.5C 155.464,230.962 153.964,233.962 153.5,237.5C 156.694,241.527 159.694,245.694 162.5,250C 162.043,250.414 161.709,250.914 161.5,251.5C 168.53,267.13 177.697,281.797 189,295.5C 191.862,298.397 195.029,300.897 198.5,303C 199.833,303.667 199.833,304.333 198.5,305C 199.253,306.487 200.086,306.654 201,305.5C 202.044,306.623 202.71,307.956 203,309.5C 209.032,314.87 215.032,320.203 221,325.5C 221.201,328.515 220.868,331.515 220,334.5C 215.062,350.103 210.562,365.436 206.5,380.5C 204.167,380.5 201.833,380.5 199.5,380.5C 200.323,377.539 200.99,374.539 201.5,371.5C 205.64,364.019 208.307,356.019 209.5,347.5C 213.586,341.28 214.919,334.613 213.5,327.5C 208.807,323.139 204.141,318.805 199.5,314.5C 194.833,309.167 189.833,304.167 184.5,299.5C 179.842,293.53 175.175,287.53 170.5,281.5C 169.617,278.296 167.95,275.629 165.5,273.5C 165.245,271.033 164.245,269.033 162.5,267.5C 160.699,262.565 158.366,257.898 155.5,253.5C 155.657,252.127 155.49,250.793 155,249.5C 151.579,244.929 148.412,240.263 145.5,235.5C 143.688,230.717 143.188,225.717 144,220.5C 147.215,219.17 149.049,216.837 149.5,213.5C 155.363,211.896 161.03,212.229 166.5,214.5 Z M 168.5,239.5 C 167.797,237.966 167.964,236.299 169,234.5C 169.837,232.993 171.004,232.493 172.5,233C 171.781,235.617 170.447,237.784 168.5,239.5 Z"/></g>
<g><path style="opacity:0.004" fill="#1e172c" d="M 316.5,217.5 C 315.508,217.328 314.842,217.662 314.5,218.5C 313.957,218.44 313.624,218.107 313.5,217.5C 314.614,216.224 315.614,216.224 316.5,217.5 Z"/></g>
<g><path style="opacity:1" fill="#755ae0" d="M 149.5,212.5 C 149.5,212.833 149.5,213.167 149.5,213.5C 149.049,216.837 147.215,219.17 144,220.5C 143.188,225.717 143.688,230.717 145.5,235.5C 141.682,230.243 140.015,224.243 140.5,217.5C 141.978,217.762 143.311,217.429 144.5,216.5C 143.41,215.391 143.41,214.391 144.5,213.5C 145.192,214.025 145.692,214.692 146,215.5C 146.422,213.574 147.589,212.574 149.5,212.5 Z"/></g>
<g><path style="opacity:0.925" fill="#735fd4" d="M 454.5,206.5 C 457.668,211.667 459.668,217.334 460.5,223.5C 459.057,222.665 458.057,221.332 457.5,219.5C 456.59,215.112 455.59,210.778 454.5,206.5 Z"/></g>
<g><path style="opacity:1" fill="#150a1f" d="M 166.5,214.5 C 167.167,215.5 167.833,216.5 168.5,217.5C 169.15,219.435 169.483,221.435 169.5,223.5C 178.628,220.299 181.962,223.299 179.5,232.5C 179.167,232.5 178.833,232.5 178.5,232.5C 178.663,230.143 178.497,227.81 178,225.5C 177.423,230.621 176.423,230.621 175,225.5C 173.284,225.411 171.451,225.744 169.5,226.5C 167.289,225.807 166.955,224.641 168.5,223C 167.313,220.276 166.647,217.443 166.5,214.5 Z"/></g>
<g><path style="opacity:1" fill="#755ee9" d="M 312.5,207.5 C 312.717,212.23 312.383,216.897 311.5,221.5C 310.797,234.038 310.13,246.705 309.5,259.5C 309.727,261.933 308.727,263.599 306.5,264.5C 305.984,258.09 304.984,251.757 303.5,245.5C 303.167,243.5 302.833,241.5 302.5,239.5C 305.537,241.97 307.037,245.303 307,249.5C 307.56,241.932 307.393,234.598 306.5,227.5C 309.247,220.853 311.247,214.187 312.5,207.5 Z"/></g>
<g><path style="opacity:0.894" fill="#7864d6" d="M 56.5,212.5 C 56.6663,219.841 56.4997,227.174 56,234.5C 54.8854,239.507 54.0521,244.507 53.5,249.5C 53.6121,236.949 54.6121,224.616 56.5,212.5 Z"/></g>
<g><path style="opacity:0.004" fill="#000000" d="M 322.5,230.5 C 323.833,231.167 323.833,231.167 322.5,230.5 Z"/></g>
<g><path style="opacity:1" fill="#775fe2" d="M 168.5,217.5 C 170.176,218.183 170.843,219.517 170.5,221.5C 173.855,220.382 177.188,220.382 180.5,221.5C 181.66,223.146 182.327,224.979 182.5,227C 181.784,229.792 181.451,232.626 181.5,235.5C 182.5,235.5 183.5,235.5 184.5,235.5C 185.201,233.092 186.201,230.758 187.5,228.5C 189.741,227.871 191.741,226.871 193.5,225.5C 190.212,230.786 186.546,235.786 182.5,240.5C 181.178,240.67 180.011,240.337 179,239.5C 178.982,237.203 179.149,234.869 179.5,232.5C 181.962,223.299 178.628,220.299 169.5,223.5C 169.483,221.435 169.15,219.435 168.5,217.5 Z"/></g>
<g><path style="opacity:0.769" fill="#6f5ccc" d="M 461.5,224.5 C 462.418,229.673 463.418,234.839 464.5,240C 464.022,241.642 463.022,242.809 461.5,243.5C 460.76,237.132 460.76,230.799 461.5,224.5 Z"/></g>
<g><path style="opacity:1" fill="#634db7" d="M 145.5,235.5 C 148.412,240.263 151.579,244.929 155,249.5C 155.49,250.793 155.657,252.127 155.5,253.5C 152.941,249.755 150.108,246.089 147,242.5C 146.56,240.134 146.06,237.801 145.5,235.5 Z"/></g>
<g><path style="opacity:0.836" fill="#060404" d="M 239.5,233.5 C 241.27,234.764 242.937,236.264 244.5,238C 238.784,244.422 231.951,249.255 224,252.5C 222.566,252.138 221.399,251.472 220.5,250.5C 220.5,249.5 220.5,248.5 220.5,247.5C 221.833,247.167 221.833,246.833 220.5,246.5C 224.904,243.96 228.904,241.127 232.5,238C 227.527,234.361 223.194,230.027 219.5,225C 220.413,222.667 221.913,220.834 224,219.5C 228.765,224.772 233.931,229.439 239.5,233.5 Z"/></g>
<g><path style="opacity:1" fill="#6a58c6" d="M 178.5,232.5 C 178.833,232.5 179.167,232.5 179.5,232.5C 179.149,234.869 178.982,237.203 179,239.5C 180.011,240.337 181.178,240.67 182.5,240.5C 180.488,243.205 178.488,245.872 176.5,248.5C 175.191,247.376 174.525,245.876 174.5,244C 175.612,240.03 176.946,236.197 178.5,232.5 Z"/></g>
<g><path style="opacity:0.721" fill="#060405" d="M 273.5,220.5 C 278.355,219.964 280.521,221.964 280,226.5C 277,229.167 274,231.833 271,234.5C 270.104,237.025 270.604,239.192 272.5,241C 275.186,242.368 277.853,243.701 280.5,245C 279.289,246.113 279.289,247.28 280.5,248.5C 280.014,250.497 278.847,251.831 277,252.5C 272.467,250.148 267.967,247.648 263.5,245C 260.728,243.469 258.728,241.302 257.5,238.5C 262.454,232.21 267.787,226.21 273.5,220.5 Z"/></g>
<g><path style="opacity:1" fill="#7762de" d="M 461.5,243.5 C 459.206,247.127 456.54,250.461 453.5,253.5C 453.5,251.833 453.5,250.167 453.5,248.5C 454.5,248.5 455.5,248.5 456.5,248.5C 455.871,243.945 457.538,242.278 461.5,243.5 Z"/></g>
<g><path style="opacity:0.216" fill="#6558b4" d="M 311.5,221.5 C 311.5,232.833 311.5,244.167 311.5,255.5C 311.771,257.38 311.104,258.713 309.5,259.5C 310.13,246.705 310.797,234.038 311.5,221.5 Z"/></g>
<g><path style="opacity:1" fill="#302463" d="M 303.5,245.5 C 304.984,251.757 305.984,258.09 306.5,264.5C 306.217,265.289 305.717,265.956 305,266.5C 304.423,259.5 303.923,252.5 303.5,245.5 Z"/></g>
<g><path style="opacity:0.999" fill="#070101" d="M 243.5,293.5 C 240.856,291.031 238.023,288.698 235,286.5C 232.803,283.061 230.637,280.227 228.5,278C 228.833,277.667 229.167,277.333 229.5,277C 227.756,273.17 226.089,269.337 224.5,265.5C 225.407,262.579 225.74,259.579 225.5,256.5C 242.833,256.5 260.167,256.5 277.5,256.5C 278.885,271.714 273.718,284.047 262,293.5C 261.667,293.167 261.333,292.833 261,292.5C 255.516,295.121 250.016,295.121 244.5,292.5C 243.893,292.624 243.56,292.957 243.5,293.5 Z"/></g>
<g><path style="opacity:0.663" fill="#5f549d" d="M 180.5,255.5 C 184.256,260.585 187.589,265.918 190.5,271.5C 185.812,268.293 182.312,263.96 180,258.5C 179.26,257.251 179.427,256.251 180.5,255.5 Z"/></g>
<g><path style="opacity:0.004" fill="#000000" d="M 317.5,260.5 C 318.833,261.167 318.833,261.167 317.5,260.5 Z"/></g>
<g><path style="opacity:1" fill="#7660db" d="M 453.5,253.5 C 447.393,260.274 440.393,265.94 432.5,270.5C 432.5,269.5 432.5,268.5 432.5,267.5C 434.537,265.725 437.204,264.391 440.5,263.5C 440.291,262.914 439.957,262.414 439.5,262C 441.517,261.326 443.183,260.159 444.5,258.5C 446.214,259.609 446.881,258.942 446.5,256.5C 448.672,255.199 451.005,254.199 453.5,253.5 Z"/></g>
<g><path style="opacity:0.004" fill="#000000" d="M 174.5,261.5 C 173.833,262.167 173.833,262.167 174.5,261.5 Z"/></g>
<g><path style="opacity:1" fill="#755edf" d="M 448.5,319.5 C 448.579,317.334 449.246,315.334 450.5,313.5C 448.867,311.613 449.2,310.113 451.5,309C 449.842,308.275 449.342,307.108 450,305.5C 451.356,306.38 452.856,306.714 454.5,306.5C 454.925,302.059 456.258,297.892 458.5,294C 458.095,293.055 457.428,292.388 456.5,292C 457.738,287.891 459.571,284.058 462,280.5C 462.667,274.833 462.667,269.167 462,263.5C 461.411,265.863 459.911,266.863 457.5,266.5C 458.622,263.037 460.289,260.704 462.5,259.5C 460.801,259.34 459.134,259.506 457.5,260C 456.277,263.223 453.944,264.889 450.5,265C 449.833,267 448.5,268.333 446.5,269C 447.711,269.893 447.711,270.726 446.5,271.5C 443.235,270.84 440.235,271.674 437.5,274C 435.934,274.765 434.601,274.598 433.5,273.5C 444.669,267.748 455.003,260.748 464.5,252.5C 465.792,271.881 462.625,290.548 455,308.5C 453.311,312.56 451.144,316.227 448.5,319.5 Z"/></g>
<g><path style="opacity:1" fill="#423085" d="M 162.5,267.5 C 164.245,269.033 165.245,271.033 165.5,273.5C 163.755,271.967 162.755,269.967 162.5,267.5 Z"/></g>
<g><path style="opacity:1" fill="#7360d1" d="M 393.5,269.5 C 394.158,270.793 394.492,272.293 394.5,274C 393.164,280.037 391.331,285.87 389,291.5C 386.504,294.503 383.671,297.169 380.5,299.5C 383.313,295.224 386.146,290.89 389,286.5C 391.225,280.998 392.725,275.331 393.5,269.5 Z"/></g>
<g><path style="opacity:0.982" fill="#7660de" d="M 52.5,250.5 C 53.1174,250.611 53.6174,250.944 54,251.5C 54.1667,253 54.3333,254.5 54.5,256C 52.8411,268.076 52.0077,280.243 52,292.5C 51.6667,292.167 51.3333,291.833 51,291.5C 51.2197,299.933 50.053,307.933 47.5,315.5C 48.81,293.803 50.4767,272.137 52.5,250.5 Z"/></g>
<g><path style="opacity:1" fill="#5945ab" d="M 165.5,273.5 C 167.95,275.629 169.617,278.296 170.5,281.5C 168.376,280.969 166.876,279.635 166,277.5C 165.51,276.207 165.343,274.873 165.5,273.5 Z"/></g>
<g><path style="opacity:0.005" fill="#000000" d="M 206.5,281.5 C 206.5,281.833 206.5,282.167 206.5,282.5C 205.624,282.631 204.957,282.298 204.5,281.5C 204.97,280.537 205.637,280.537 206.5,281.5 Z"/></g>
<g><path style="opacity:0.004" fill="#000000" d="M 303.5,280.5 C 304.833,281.167 304.833,281.167 303.5,280.5 Z"/></g>
<g><path style="opacity:0.784" fill="#725dde" d="M 432.5,270.5 C 427.491,274.637 421.825,277.804 415.5,280C 421.469,279.289 427.136,277.455 432.5,274.5C 432.056,276.113 431.056,277.28 429.5,278C 423.854,279.938 418.187,281.771 412.5,283.5C 411.893,283.376 411.56,283.043 411.5,282.5C 412.833,282.167 412.833,281.833 411.5,281.5C 410.833,281.833 410.167,282.167 409.5,282.5C 408.833,282.5 408.167,282.5 407.5,282.5C 407.5,282.167 407.5,281.833 407.5,281.5C 408.922,281.25 409.922,280.417 410.5,279C 412.5,278.667 414.5,278.333 416.5,278C 415.253,276.506 415.253,275.006 416.5,273.5C 417.386,274.325 417.719,275.325 417.5,276.5C 418.873,276.657 420.207,276.49 421.5,276C 420.549,275.282 420.383,274.449 421,273.5C 424.591,271.68 428.424,270.68 432.5,270.5 Z"/></g>
<g><path style="opacity:1" fill="#7c5efb" d="M 448.5,319.5 C 445.905,321.933 443.405,324.6 441,327.5C 440.517,328.448 440.351,329.448 440.5,330.5C 438.61,330.703 437.11,330.037 436,328.5C 434.421,330.458 434.588,332.458 436.5,334.5C 434.332,336.455 431.998,337.121 429.5,336.5C 429.808,337.308 430.308,337.975 431,338.5C 431.893,337.289 432.726,337.289 433.5,338.5C 432.873,339.417 432.539,340.417 432.5,341.5C 427.977,341.027 425.643,343.027 425.5,347.5C 424.167,347.5 422.833,347.5 421.5,347.5C 421.5,348.833 421.5,350.167 421.5,351.5C 416.197,356.489 410.197,360.489 403.5,363.5C 400.428,363.183 397.428,363.516 394.5,364.5C 391.094,365.865 388.094,367.865 385.5,370.5C 379.333,371.556 373.333,373.222 367.5,375.5C 359.465,376.02 351.799,377.353 344.5,379.5C 330.829,379.667 317.163,379.5 303.5,379C 302.934,378.005 302.267,377.172 301.5,376.5C 299.959,370.796 298.293,365.129 296.5,359.5C 295.755,354.109 294.755,348.776 293.5,343.5C 293.404,338.74 292.404,334.24 290.5,330C 292.312,326.874 293.979,323.708 295.5,320.5C 295.351,319.448 295.517,318.448 296,317.5C 299.311,312.475 302.811,307.808 306.5,303.5C 308.131,307.232 309.131,311.232 309.5,315.5C 309.5,315.833 309.5,316.167 309.5,316.5C 323.64,318.055 337.973,319.055 352.5,319.5C 353.833,319.333 355.167,319.167 356.5,319C 354.5,318.333 352.5,317.667 350.5,317C 352.698,316.627 354.865,316.127 357,315.5C 360.133,318.075 363.299,318.075 366.5,315.5C 367.442,315.608 368.275,315.941 369,316.5C 372.129,314.776 374.962,312.61 377.5,310C 381.082,308.351 384.749,306.851 388.5,305.5C 387.391,304.035 387.891,303.035 390,302.5C 390.617,301.551 390.451,300.718 389.5,300C 393.385,297.155 396.552,294.322 399,291.5C 399.333,290.5 399.667,289.5 400,288.5C 403.675,287.64 406.842,285.974 409.5,283.5C 409.5,283.167 409.5,282.833 409.5,282.5C 410.167,282.167 410.833,281.833 411.5,281.5C 411.5,281.833 411.5,282.167 411.5,282.5C 411.56,283.043 411.893,283.376 412.5,283.5C 418.187,281.771 423.854,279.938 429.5,278C 431.056,277.28 432.056,276.113 432.5,274.5C 432.5,273.833 432.833,273.5 433.5,273.5C 434.601,274.598 435.934,274.765 437.5,274C 440.235,271.674 443.235,270.84 446.5,271.5C 447.711,270.726 447.711,269.893 446.5,269C 448.5,268.333 449.833,267 450.5,265C 453.944,264.889 456.277,263.223 457.5,260C 459.134,259.506 460.801,259.34 462.5,259.5C 460.289,260.704 458.622,263.037 457.5,266.5C 459.911,266.863 461.411,265.863 462,263.5C 462.667,269.167 462.667,274.833 462,280.5C 459.571,284.058 457.738,287.891 456.5,292C 457.428,292.388 458.095,293.055 458.5,294C 456.258,297.892 454.925,302.059 454.5,306.5C 452.856,306.714 451.356,306.38 450,305.5C 449.342,307.108 449.842,308.275 451.5,309C 449.2,310.113 448.867,311.613 450.5,313.5C 449.246,315.334 448.579,317.334 448.5,319.5 Z"/></g>
<g><path style="opacity:1" fill="#785ff1" d="M 371.5,213.5 C 374.247,213.187 376.914,213.52 379.5,214.5C 378.674,215.451 378.508,216.451 379,217.5C 380.425,218.212 381.925,218.379 383.5,218C 384.38,219.356 384.714,220.856 384.5,222.5C 386.288,222.215 387.955,222.548 389.5,223.5C 392.387,228.079 394.221,233.079 395,238.5C 395.893,237.289 396.726,237.289 397.5,238.5C 396.689,239.216 396.022,240.05 395.5,241C 396.137,246.4 397.137,251.733 398.5,257C 398.02,262.947 397.02,268.781 395.5,274.5C 395.818,275.647 396.484,276.481 397.5,277C 396.833,277.333 396.167,277.667 395.5,278C 397.991,278.626 397.991,279.459 395.5,280.5C 397.248,280.564 398.914,281.564 400.5,283.5C 402.801,282.675 405.135,282.008 407.5,281.5C 407.5,281.833 407.5,282.167 407.5,282.5C 407.842,283.338 408.508,283.672 409.5,283.5C 406.842,285.974 403.675,287.64 400,288.5C 399.667,289.5 399.333,290.5 399,291.5C 396.552,294.322 393.385,297.155 389.5,300C 390.451,300.718 390.617,301.551 390,302.5C 387.891,303.035 387.391,304.035 388.5,305.5C 384.749,306.851 381.082,308.351 377.5,310C 374.962,312.61 372.129,314.776 369,316.5C 368.275,315.941 367.442,315.608 366.5,315.5C 363.299,318.075 360.133,318.075 357,315.5C 354.865,316.127 352.698,316.627 350.5,317C 352.5,317.667 354.5,318.333 356.5,319C 355.167,319.167 353.833,319.333 352.5,319.5C 337.973,319.055 323.64,318.055 309.5,316.5C 323.527,316.732 337.527,316.232 351.5,315C 356.95,313.438 362.283,311.605 367.5,309.5C 369.593,308.955 371.593,308.122 373.5,307C 376.428,304.91 378.761,302.41 380.5,299.5C 383.671,297.169 386.504,294.503 389,291.5C 391.331,285.87 393.164,280.037 394.5,274C 394.492,272.293 394.158,270.793 393.5,269.5C 398.474,245.717 391.14,227.05 371.5,213.5 Z"/></g>
<g><path style="opacity:1" fill="#4f3c92" d="M 184.5,299.5 C 189.833,304.167 194.833,309.167 199.5,314.5C 193.5,310.5 188.5,305.5 184.5,299.5 Z"/></g>
<g><path style="opacity:0.506" fill="#7364c6" d="M 380.5,299.5 C 378.761,302.41 376.428,304.91 373.5,307C 371.593,308.122 369.593,308.955 367.5,309.5C 371.809,306.198 376.143,302.864 380.5,299.5 Z"/></g>
<g><path style="opacity:0.408" fill="#6557b2" d="M 309.5,301.5 C 309.5,306.167 309.5,310.833 309.5,315.5C 309.131,311.232 308.131,307.232 306.5,303.5C 306.973,302.094 307.973,301.427 309.5,301.5 Z"/></g>
<g><path style="opacity:1" fill="#765fe4" d="M 122.5,303.5 C 123.833,303.5 125.167,303.5 126.5,303.5C 126.369,308.766 127.702,309.433 130.5,305.5C 131.308,307.423 131.808,309.423 132,311.5C 132.333,311.167 132.667,310.833 133,310.5C 134.432,315.198 136.599,319.865 139.5,324.5C 133.484,317.814 127.818,310.814 122.5,303.5 Z"/></g>
<g><path style="opacity:0.075" fill="#6e60b2" d="M 117.5,301.5 C 116.903,304.941 116.237,308.275 115.5,311.5C 114.931,307.671 115.598,304.337 117.5,301.5 Z"/></g>
<g><path style="opacity:1" fill="#5845a5" d="M 295.5,320.5 C 293.979,323.708 292.312,326.874 290.5,330C 292.404,334.24 293.404,338.74 293.5,343.5C 292.226,339.113 290.892,334.613 289.5,330C 289.71,325.638 291.71,322.471 295.5,320.5 Z"/></g>
<g><path style="opacity:0.361" fill="#6f5fc6" d="M 110.5,325.5 C 110.833,325.5 111.167,325.5 111.5,325.5C 110.873,329.42 109.207,332.753 106.5,335.5C 107.809,332.207 109.142,328.874 110.5,325.5 Z"/></g>
<g><path style="opacity:1" fill="#1d1538" d="M 213.5,327.5 C 214.919,334.613 213.586,341.28 209.5,347.5C 209.756,344.402 210.422,341.402 211.5,338.5C 212.463,334.899 213.13,331.233 213.5,327.5 Z"/></g>
<g><path style="opacity:1" fill="#745fe1" d="M 448.5,319.5 C 444.32,327.679 438.987,335.012 432.5,341.5C 432.539,340.417 432.873,339.417 433.5,338.5C 432.726,337.289 431.893,337.289 431,338.5C 430.308,337.975 429.808,337.308 429.5,336.5C 431.998,337.121 434.332,336.455 436.5,334.5C 434.588,332.458 434.421,330.458 436,328.5C 437.11,330.037 438.61,330.703 440.5,330.5C 440.351,329.448 440.517,328.448 441,327.5C 443.405,324.6 445.905,321.933 448.5,319.5 Z"/></g>
<g><path style="opacity:1" fill="#7059d2" d="M 211.5,338.5 C 210.422,341.402 209.756,344.402 209.5,347.5C 208.044,350.068 206.711,352.734 205.5,355.5C 206.394,349.804 207.394,344.137 208.5,338.5C 209.5,338.5 210.5,338.5 211.5,338.5 Z"/></g>
<g><path style="opacity:1" fill="#7460db" d="M 432.5,341.5 C 429.457,345.544 425.791,348.877 421.5,351.5C 421.5,350.167 421.5,348.833 421.5,347.5C 422.833,347.5 424.167,347.5 425.5,347.5C 425.643,343.027 427.977,341.027 432.5,341.5 Z"/></g>
<g><path style="opacity:0.352" fill="#7665c2" d="M 46.5,326.5 C 46.5337,335.701 45.8671,344.701 44.5,353.5C 44.3793,344.293 45.046,335.293 46.5,326.5 Z"/></g>
<g><path style="opacity:1" fill="#775eeb" d="M 110.5,325.5 C 109.142,328.874 107.809,332.207 106.5,335.5C 102.664,343.01 97.3307,349.344 90.5,354.5C 88.281,351.796 87.9476,348.796 89.5,345.5C 91.9201,345.708 94.2534,345.374 96.5,344.5C 97.4287,343.311 97.762,341.978 97.5,340.5C 100.288,340.923 102.288,339.923 103.5,337.5C 100.56,332.713 101.893,330.046 107.5,329.5C 107.201,327.396 107.534,325.396 108.5,323.5C 109.182,324.243 109.849,324.909 110.5,325.5 Z"/></g>
<g><path style="opacity:0.829" fill="#010101" d="M 246.5,348.5 C 253.305,347.673 255.305,350.173 252.5,356C 246.258,356.923 244.258,354.423 246.5,348.5 Z"/></g>
<g><path style="opacity:0.827" fill="#010101" d="M 260.5,348.5 C 267.536,347.603 269.203,350.103 265.5,356C 261.535,357.417 259.201,356.084 258.5,352C 259.305,350.887 259.972,349.721 260.5,348.5 Z"/></g>
<g><path style="opacity:1" fill="#7661d9" d="M 157.5,348.5 C 162.956,350.631 166.29,354.631 167.5,360.5C 163.82,356.817 160.486,352.817 157.5,348.5 Z"/></g>
<g><path style="opacity:0.004" fill="#000000" d="M 232.5,356.5 C 233.573,357.251 233.74,358.251 233,359.5C 232.517,358.552 232.351,357.552 232.5,356.5 Z"/></g>
<g><path style="opacity:0.157" fill="#6e59ce" d="M 43.5,354.5 C 44.4881,359.64 44.8214,364.974 44.5,370.5C 46.4147,370.216 48.0813,370.549 49.5,371.5C 47.1667,371.5 44.8333,371.5 42.5,371.5C 43.1342,365.855 43.4676,360.189 43.5,354.5 Z"/></g>
<g><path style="opacity:0.965" fill="#715bcf" d="M 88.5,355.5 C 84.6767,358.916 80.3434,361.582 75.5,363.5C 73.6329,360.193 74.2995,359.193 77.5,360.5C 79.0564,359.453 80.7231,358.786 82.5,358.5C 82.3505,357.448 82.5172,356.448 83,355.5C 84.7755,356.536 86.6089,356.536 88.5,355.5 Z"/></g>
<g><path style="opacity:0.819" fill="#010101" d="M 247.5,358.5 C 253.234,358.368 255.234,361.035 253.5,366.5C 245.563,367.916 243.563,365.249 247.5,358.5 Z"/></g>
<g><path style="opacity:0.852" fill="#020202" d="M 260.5,358.5 C 266.487,357.977 268.487,360.477 266.5,366C 264.19,366.497 261.857,366.663 259.5,366.5C 258.454,363.785 258.787,361.118 260.5,358.5 Z"/></g>
<g><path style="opacity:1" fill="#171034" d="M 209.5,347.5 C 208.307,356.019 205.64,364.019 201.5,371.5C 201.5,371.167 201.5,370.833 201.5,370.5C 203.237,365.62 204.57,360.62 205.5,355.5C 206.711,352.734 208.044,350.068 209.5,347.5 Z"/></g>
<g><path style="opacity:1" fill="#7560db" d="M 403.5,363.5 C 386.173,373.168 367.506,378.502 347.5,379.5C 346.5,379.5 345.5,379.5 344.5,379.5C 351.799,377.353 359.465,376.02 367.5,375.5C 373.333,373.222 379.333,371.556 385.5,370.5C 388.094,367.865 391.094,365.865 394.5,364.5C 397.428,363.516 400.428,363.183 403.5,363.5 Z"/></g>
<g><path style="opacity:0.803" fill="#010101" d="M 246.5,369.5 C 248.833,369.5 251.167,369.5 253.5,369.5C 255.229,376.942 252.729,378.942 246,375.5C 245.322,373.402 245.489,371.402 246.5,369.5 Z"/></g>
<g><path style="opacity:0.812" fill="#010101" d="M 259.5,369.5 C 261.857,369.337 264.19,369.503 266.5,370C 268.486,375.683 266.486,378.016 260.5,377C 258.548,374.618 258.215,372.118 259.5,369.5 Z"/></g>
<g><path style="opacity:1" fill="#7560e2" d="M 167.5,361.5 C 170.215,363.123 173.215,363.79 176.5,363.5C 176.215,365.288 176.548,366.955 177.5,368.5C 179.824,368.877 180.491,369.877 179.5,371.5C 181.334,373.498 182.334,375.832 182.5,378.5C 187.833,378.5 193.167,378.5 198.5,378.5C 193.36,379.488 188.026,379.821 182.5,379.5C 177.53,373.525 172.53,367.525 167.5,361.5 Z"/></g>
<g><path style="opacity:1" fill="#120823" d="M 296.5,359.5 C 298.293,365.129 299.959,370.796 301.5,376.5C 301.5,377.833 301.5,379.167 301.5,380.5C 301.167,380.5 300.833,380.5 300.5,380.5C 298.28,373.731 296.947,366.731 296.5,359.5 Z"/></g>
<g><path style="opacity:0.547" fill="#6659b4" d="M 201.5,370.5 C 201.5,370.833 201.5,371.167 201.5,371.5C 200.99,374.539 200.323,377.539 199.5,380.5C 193.642,380.822 187.975,380.489 182.5,379.5C 188.026,379.821 193.36,379.488 198.5,378.5C 197.828,375.058 198.828,372.391 201.5,370.5 Z"/></g>
<g><path style="opacity:0.464" fill="#7062b9" d="M 301.5,376.5 C 302.267,377.172 302.934,378.005 303.5,379C 317.163,379.5 330.829,379.667 344.5,379.5C 345.5,379.5 346.5,379.5 347.5,379.5C 332.342,380.496 317.009,380.83 301.5,380.5C 301.5,379.167 301.5,377.833 301.5,376.5 Z"/></g>
</svg>
