<?xml version="1.0" encoding="UTF-8"?>
<svg version="1.1" xmlns="http://www.w3.org/2000/svg" width="370" height="202">
<path d="M0 0 C3.3 0 6.6 0 10 0 C10 0.99 10 1.98 10 3 C10.66 3 11.32 3 12 3 C11.67 4.32 11.34 5.64 11 7 C14.96697886 8.80317221 18.6822542 9.49202991 23 10 C23 10.66 23 11.32 23 12 C24.051875 12.1546875 24.051875 12.1546875 25.125 12.3125 C28.39137647 13.09359003 31.0471852 14.42058743 34 16 C34 16.66 34 17.32 34 18 C34.66 18 35.32 18 36 18 C36 18.66 36 19.32 36 20 C36.66 20 37.32 20 38 20 C38 20.66 38 21.32 38 22 C38.66 22 39.32 22 40 22 C40 22.66 40 23.32 40 24 C40.66 24 41.32 24 42 24 C42 24.99 42 25.98 42 27 C42.66 27 43.32 27 44 27 C47.41103599 33.67304614 50.11339533 39.27406333 50.75390625 46.81640625 C50.99454846 48.95162837 51.43211174 50.93025848 52 53 C53.98 53.495 53.98 53.495 56 54 C55.49233975 58.44202715 54.26870653 60.92622089 51 64 C48.03573961 64.72695984 45.13904157 64.63219875 42.10058594 64.56762695 C41.20267334 64.56835709 40.30476074 64.56908722 39.37963867 64.56983948 C36.41393466 64.56635808 33.44980436 64.5274708 30.484375 64.48828125 C28.42743793 64.47895509 26.37048975 64.47183805 24.3135376 64.46684265 C18.90125837 64.44775745 13.48965071 64.39864299 8.07763672 64.34332275 C2.5544544 64.29216342 -2.9688365 64.26933566 -8.4921875 64.24414062 C-19.32841996 64.19052617 -30.16415412 64.10519451 -41 64 C-41.33 62.68 -41.66 61.36 -42 60 C-42.66 60 -43.32 60 -44 60 C-44 58.02 -44 56.04 -44 54 C-42.68 54 -41.36 54 -40 54 C-40.04640625 53.17757812 -40.0928125 52.35515625 -40.140625 51.5078125 C-40.43622095 42.36545192 -39.09305063 35.63957594 -34 28 C-33.34 28 -32.68 28 -32 28 C-31.896875 27.4225 -31.79375 26.845 -31.6875 26.25 C-30.89103535 23.64338842 -29.80934723 22.0264689 -28 20 C-27.34 20 -26.68 20 -26 20 C-26 19.34 -26 18.68 -26 18 C-23 16 -23 16 -20 16 C-20 15.34 -20 14.68 -20 14 C-13.60599652 10.57879294 -7.44734579 7.54864571 0 8 C0 5.36 0 2.72 0 0 Z M-12 18 C-12.33 18.66 -12.66 19.32 -13 20 C-12.01 19.67 -11.02 19.34 -10 19 C-10.66 18.67 -11.32 18.34 -12 18 Z M-14 20 C-14.33 20.66 -14.66 21.32 -15 22 C-14.34 22 -13.68 22 -13 22 C-13.33 21.34 -13.66 20.68 -14 20 Z M-18.625 23.375 C-20.21531408 24.89968321 -20.21531408 24.89968321 -20 27 C-20.66 27 -21.32 27 -22 27 C-24.8394052 30.67452438 -26 32.26886581 -26 37 C-26.66 37 -27.32 37 -28 37 C-28 38.98 -28 40.96 -28 43 C-28.66 43 -29.32 43 -30 43 C-30 43.99 -30 44.98 -30 46 C-28.68 46 -27.36 46 -26 46 C-26 44.35 -26 42.7 -26 41 C-25.34 41 -24.68 41 -24 41 C-24 39.02 -24 37.04 -24 35 C-23.34 35 -22.68 35 -22 35 C-22 33.68 -22 32.36 -22 31 C-21.34 31 -20.68 31 -20 31 C-18.08152136 28.12228205 -16.49920512 25.11373372 -15 22 C-17.10031679 21.78468592 -17.10031679 21.78468592 -18.625 23.375 Z " fill="#000000" transform="translate(207,43)"/>
<path d="M0 0 C0.68578125 -0.00773437 1.3715625 -0.01546875 2.078125 -0.0234375 C6.42530835 -0.0068452 9.96113993 0.65969885 14 2.25 C14 2.91 14 3.57 14 4.25 C14.598125 4.353125 15.19625 4.45625 15.8125 4.5625 C18.28243264 5.33876455 19.32251235 6.32088921 21 8.25 C21.144375 7.115625 21.28875 5.98125 21.4375 4.8125 C22 1.25 22 1.25 23 0.25 C24.62139437 0.12505384 26.24884122 0.07428376 27.875 0.0625 C28.75929688 0.04832031 29.64359375 0.03414062 30.5546875 0.01953125 C33 0.25 33 0.25 36 2.25 C36.36076355 4.92019653 36.36076355 4.92019653 36.34057617 8.35205078 C36.34034958 9.63322784 36.34012299 10.91440491 36.33988953 12.23440552 C36.32456841 13.6380447 36.3089204 15.04168034 36.29296875 16.4453125 C36.28737438 17.87734535 36.28310353 19.30938393 36.28010559 20.74142456 C36.26864413 24.51287656 36.23916624 28.28398265 36.20599365 32.05529785 C36.1753205 35.90270304 36.16160618 39.75016406 36.14648438 43.59765625 C36.1142973 51.14861355 36.06151931 58.69921427 36 66.25 C31.38 66.25 26.76 66.25 22 66.25 C21.505 63.28 21.505 63.28 21 60.25 C20.49210937 60.65992188 19.98421875 61.06984375 19.4609375 61.4921875 C18.77257812 62.03101563 18.08421875 62.56984375 17.375 63.125 C16.70210938 63.65867188 16.02921875 64.19234375 15.3359375 64.7421875 C8.48186772 69.16638639 0.88133083 68.97670888 -7 68.25 C-11.8231267 66.93064147 -15.84987557 65.01674962 -20 62.25 C-20 61.59 -20 60.93 -20 60.25 C-20.66 60.25 -21.32 60.25 -22 60.25 C-22 59.59 -22 58.93 -22 58.25 C-22.66 58.25 -23.32 58.25 -24 58.25 C-26 55.25 -26 55.25 -26 52.25 C-26.66 52.25 -27.32 52.25 -28 52.25 C-28 50.93 -28 49.61 -28 48.25 C-28.66 48.25 -29.32 48.25 -30 48.25 C-30.22786458 46.19921875 -30.45572917 44.1484375 -30.68359375 42.09765625 C-30.81886614 40.23859771 -30.81886614 40.23859771 -32 39.25 C-32.09851171 37.41884117 -32.12972629 35.58380067 -32.125 33.75 C-32.12757813 32.7496875 -32.13015625 31.749375 -32.1328125 30.71875 C-32 28.25 -32 28.25 -31 27.25 C-30.855625 26.1775 -30.71125 25.105 -30.5625 24 C-30.07165009 20.72766726 -29.35790278 18.23738612 -28 15.25 C-27.34 15.25 -26.68 15.25 -26 15.25 C-26 14.26 -26 13.27 -26 12.25 C-25.34 12.25 -24.68 12.25 -24 12.25 C-24 11.59 -24 10.93 -24 10.25 C-23.34 10.25 -22.68 10.25 -22 10.25 C-22 9.59 -22 8.93 -22 8.25 C-21.34 8.25 -20.68 8.25 -20 8.25 C-20 7.59 -20 6.93 -20 6.25 C-17 4.25 -17 4.25 -14 4.25 C-14 3.59 -14 2.93 -14 2.25 C-9.27654477 0.3901395 -5.02240658 -0.05664368 0 0 Z M-2 12.25 C-2 12.91 -2 13.57 -2 14.25 C-3.1446875 14.188125 -3.1446875 14.188125 -4.3125 14.125 C-7.22718416 14.02919176 -7.22718416 14.02919176 -10 16.25 C-10 16.91 -10 17.57 -10 18.25 C-10.66 18.25 -11.32 18.25 -12 18.25 C-12 18.91 -12 19.57 -12 20.25 C-12.66 20.25 -13.32 20.25 -14 20.25 C-16.76156524 25.18136651 -18.50150326 30.56629636 -18 36.25 C-17.67 36.58 -17.34 36.91 -17 37.25 C-16.63239269 39.57817964 -16.29758419 41.9118385 -16 44.25 C-15.34 44.25 -14.68 44.25 -14 44.25 C-13.855625 44.86875 -13.71125 45.4875 -13.5625 46.125 C-13.06847775 48.28258322 -13.06847775 48.28258322 -12 50.25 C-11.34 50.25 -10.68 50.25 -10 50.25 C-10 50.91 -10 51.57 -10 52.25 C-5.09797184 54.99964338 0.54148772 55.82856153 6.1015625 54.8984375 C7.75833174 54.42608201 9.3828695 53.84404794 11 53.25 C12.485 52.755 12.485 52.755 14 52.25 C14 51.59 14 50.93 14 50.25 C14.66 50.25 15.32 50.25 16 50.25 C18.2773501 47.43490007 18.2773501 47.43490007 18 44.25 C18.66 44.25 19.32 44.25 20 44.25 C20.144375 43.115625 20.28875 41.98125 20.4375 40.8125 C21 37.25 21 37.25 22 36.25 C22.58507576 31.42312498 20.76569182 27.62306056 19 23.25 C18.505 21.765 18.505 21.765 18 20.25 C17.34 20.25 16.68 20.25 16 20.25 C16 19.59 16 18.93 16 18.25 C14.35 17.59 12.7 16.93 11 16.25 C11 15.59 11 14.93 11 14.25 C6.49646738 12.49252386 2.82360189 12.05705592 -2 12.25 Z " fill="#000000" transform="translate(327,48.75)"/>
<path d="M0 0 C1.64666802 0.96390323 3.28166879 1.95027591 4.875 3 C4.875 3.66 4.875 4.32 4.875 5 C5.535 5 6.195 5 6.875 5 C6.875 5.66 6.875 6.32 6.875 7 C7.535 7 8.195 7 8.875 7 C8.875 7.66 8.875 8.32 8.875 9 C9.535 9 10.195 9 10.875 9 C12.63962683 12.08809695 12.875 13.23312136 12.875 17 C13.535 17 14.195 17 14.875 17 C14.875 23.6 14.875 30.2 14.875 37 C-0.965 37 -16.805 37 -33.125 37 C-33.125 38.98 -33.125 40.96 -33.125 43 C-32.465 43 -31.805 43 -31.125 43 C-29.77113064 44.65002828 -28.43821858 46.3174387 -27.125 48 C-26.465 48.33 -25.805 48.66 -25.125 49 C-25.125 49.66 -25.125 50.32 -25.125 51 C-24.320625 50.979375 -23.51625 50.95875 -22.6875 50.9375 C-20.125 51 -20.125 51 -19.125 52 C-13.87160112 52.41203128 -10.60206253 51.78572779 -6.125 49 C-3.09621475 46.39187937 -1.96211699 44.67423399 -0.125 41 C4.495 41 9.115 41 13.875 41 C13.875 44.55046666 13.63404303 46.10239242 12.375 49.25 C12.0965625 49.95640625 11.818125 50.6628125 11.53125 51.390625 C11.3146875 51.92171875 11.098125 52.4528125 10.875 53 C10.215 53 9.555 53 8.875 53 C8.875 53.66 8.875 54.32 8.875 55 C8.215 55 7.555 55 6.875 55 C6.875 55.66 6.875 56.32 6.875 57 C6.215 57 5.555 57 4.875 57 C4.875 57.66 4.875 58.32 4.875 59 C-2.33609642 63.32665785 -8.06749667 65.32323245 -16.5 65.125 C-17.23605469 65.11597656 -17.97210938 65.10695313 -18.73046875 65.09765625 C-20.5287888 65.07430144 -22.32693911 65.03843836 -24.125 65 C-24.125 64.34 -24.125 63.68 -24.125 63 C-25.0325 63.04125 -25.94 63.0825 -26.875 63.125 C-30.0032046 63.00468444 -31.51114006 62.6085292 -34.125 61 C-34.125 60.34 -34.125 59.68 -34.125 59 C-35.115 59 -36.105 59 -37.125 59 C-37.125 58.34 -37.125 57.68 -37.125 57 C-37.785 57 -38.445 57 -39.125 57 C-39.125 56.34 -39.125 55.68 -39.125 55 C-39.785 55 -40.445 55 -41.125 55 C-43.9644052 51.32547562 -45.125 49.73113419 -45.125 45 C-45.785 45 -46.445 45 -47.125 45 C-47.269375 43.865625 -47.41375 42.73125 -47.5625 41.5625 C-47.73671478 38.19222799 -47.73671478 38.19222799 -49.125 37 C-49.22373816 35.00200428 -49.25471799 33.00042842 -49.25 31 C-49.25257812 29.906875 -49.25515625 28.81375 -49.2578125 27.6875 C-49.125 25 -49.125 25 -48.125 24 C-47.980625 22.9275 -47.83625 21.855 -47.6875 20.75 C-47.19665009 17.47766726 -46.48290278 14.98738612 -45.125 12 C-44.465 12 -43.805 12 -43.125 12 C-43.125 11.01 -43.125 10.02 -43.125 9 C-42.465 9 -41.805 9 -41.125 9 C-41.125 8.34 -41.125 7.68 -41.125 7 C-40.465 7 -39.805 7 -39.125 7 C-39.125 6.34 -39.125 5.68 -39.125 5 C-38.465 5 -37.805 5 -37.125 5 C-37.125 4.34 -37.125 3.68 -37.125 3 C-25.43805396 -3.87467414 -12.63026179 -6.38287366 0 0 Z M-21.125 9 C-21.125 9.66 -21.125 10.32 -21.125 11 C-22.2078125 11.12375 -22.2078125 11.12375 -23.3125 11.25 C-26.73727126 12.16327234 -28.59507429 13.54235788 -31.125 16 C-31.125 16.99 -31.125 17.98 -31.125 19 C-31.785 19 -32.445 19 -33.125 19 C-33.125 20.98 -33.125 22.96 -33.125 25 C-21.905 25 -10.685 25 0.875 25 C0.875 23.02 0.875 21.04 0.875 19 C0.215 19 -0.445 19 -1.125 19 C-1.186875 18.4225 -1.24875 17.845 -1.3125 17.25 C-2.47607133 14.02780247 -4.29426179 12.84327139 -7.125 11 C-8.445 11 -9.765 11 -11.125 11 C-11.125 10.34 -11.125 9.68 -11.125 9 C-14.425 9 -17.725 9 -21.125 9 Z " fill="#000000" transform="translate(118.125,52)"/>
<path d="M0 0 C4.62 0 9.24 0 14 0 C14.33 10.56 14.66 21.12 15 32 C16.65 30.02 18.3 28.04 20 26 C20.66 26 21.32 26 22 26 C22 25.34 22 24.68 22 24 C22.66 24 23.32 24 24 24 C24 23.34 24 22.68 24 22 C24.66 22 25.32 22 26 22 C26.66 20.35 27.32 18.7 28 17 C28.66 17 29.32 17 30 17 C30.2475 16.443125 30.495 15.88625 30.75 15.3125 C32.22924818 12.57589087 33.93467439 10.32349131 36 8 C36.66 8 37.32 8 38 8 C38 7.34 38 6.68 38 6 C38.66 6 39.32 6 40 6 C40 5.34 40 4.68 40 4 C40.66 4 41.32 4 42 4 C42.66 2.68 43.32 1.36 44 0 C49.28 0 54.56 0 60 0 C59 4 59 4 58 6 C57.34 6 56.68 6 56 6 C55.76410156 6.55429687 55.52820313 7.10859375 55.28515625 7.6796875 C53.6873545 10.56447242 51.68148991 12.71172032 49.4375 15.125 C46.36280814 18.31507509 46.36280814 18.31507509 44 22 C43.34 22 42.68 22 42 22 C42 22.66 42 23.32 42 24 C41.34 24 40.68 24 40 24 C40 24.66 40 25.32 40 26 C39.34 26 38.68 26 38 26 C38 26.66 38 27.32 38 28 C37.34 28 36.68 28 36 28 C35.74347656 28.5775 35.48695312 29.155 35.22265625 29.75 C33.47922488 32.95835933 31.04658692 35.35165799 28.55859375 38 C26.95680421 40.05542919 26.41460561 41.45557105 26 44 C26.66 44 27.32 44 28 44 C28 44.66 28 45.32 28 46 C28.66 46 29.32 46 30 46 C30 46.66 30 47.32 30 48 C30.66 48 31.32 48 32 48 C32 48.66 32 49.32 32 50 C32.66 50 33.32 50 34 50 C34 50.66 34 51.32 34 52 C34.66 52 35.32 52 36 52 C37.55078125 53.5390625 37.55078125 53.5390625 39.3125 55.625 C39.92867187 56.35203125 40.54484375 57.0790625 41.1796875 57.828125 C41.78039063 58.54484375 42.38109375 59.2615625 43 60 C43.51820312 60.59296875 44.03640625 61.1859375 44.5703125 61.796875 C48 65.75571429 48 65.75571429 48 68 C48.66 68 49.32 68 50 68 C50 68.66 50 69.32 50 70 C50.66 70 51.32 70 52 70 C52 70.66 52 71.32 52 72 C52.66 72 53.32 72 54 72 C54 72.66 54 73.32 54 74 C54.66 74 55.32 74 56 74 C56 74.66 56 75.32 56 76 C56.66 76 57.32 76 58 76 C58 76.66 58 77.32 58 78 C58.66 78 59.32 78 60 78 C60 79.32 60 80.64 60 82 C43.81755042 83.06865233 43.81755042 83.06865233 39.46875 80.51171875 C37.40411303 78.06755292 36 76.25635696 36 73 C35.34 73 34.68 73 34 73 C33.34 71.35 32.68 69.7 32 68 C31.34 68 30.68 68 30 68 C30 67.34 30 66.68 30 66 C29.34 66 28.68 66 28 66 C28 65.34 28 64.68 28 64 C27.34 64 26.68 64 26 64 C24.37890625 62.390625 24.37890625 62.390625 22.5625 60.25 C21.96566406 59.55390625 21.36882813 58.8578125 20.75390625 58.140625 C16 52.33853007 16 52.33853007 16 50 C15.34 50 14.68 50 14 50 C14 60.56 14 71.12 14 82 C9.38 82 4.76 82 0 82 C0 54.94 0 27.88 0 0 Z " fill="#000000" transform="translate(11,33)"/>
<path d="M0 0 C4.62 0 9.24 0 14 0 C14 28.38 14 56.76 14 86 C9.38 86 4.76 86 0 86 C0 57.62 0 29.24 0 0 Z " fill="#000000" transform="translate(137,29)"/>
<path d="M0 0 C4.29 0 8.58 0 13 0 C13 28.38 13 56.76 13 86 C8.71 86 4.42 86 0 86 C-1.76328472 84.23671528 -1.12615644 81.90482856 -1.13552856 79.55593872 C-1.13350433 78.77564301 -1.1314801 77.99534729 -1.12939453 77.19140625 C-1.13114685 76.37356659 -1.13289917 75.55572693 -1.13470459 74.71310425 C-1.13912385 71.9962149 -1.13618486 69.27939007 -1.1328125 66.5625 C-1.13348552 64.68302396 -1.13445553 62.80354801 -1.13571167 60.92407227 C-1.13718874 56.97964654 -1.13503379 53.03524342 -1.13037109 49.09082031 C-1.1246738 44.02287497 -1.12795276 38.95498258 -1.13394356 33.88703918 C-1.13754892 30.00443113 -1.1364107 26.12183572 -1.13381577 22.23922729 C-1.13314643 20.37002557 -1.13397516 18.50082272 -1.13629532 16.63162231 C-1.13882143 14.02391496 -1.13498184 11.41629459 -1.12939453 8.80859375 C-1.13141876 8.02829803 -1.13344299 7.24800232 -1.13552856 6.44406128 C-1.11426253 1.11426253 -1.11426253 1.11426253 0 0 Z " fill="#000000" transform="translate(278,29)"/>
<path d="M0 0 C2.47923801 -0.02685095 4.9581884 -0.04676547 7.4375 -0.0625 C8.14455078 -0.07087891 8.85160156 -0.07925781 9.58007812 -0.08789062 C11.38693559 -0.09653588 13.19387603 -0.05220011 15 0 C15.33 0.33 15.66 0.66 16 1 C17.6396875 1.2165625 17.6396875 1.2165625 19.3125 1.4375 C22.44101199 1.91473064 24.34101141 2.40460685 27 4 C27 4.66 27 5.32 27 6 C27.66 6 28.32 6 29 6 C29 6.66 29 7.32 29 8 C29.66 8 30.32 8 31 8 C31 8.99 31 9.98 31 11 C31.66 11 32.32 11 33 11 C36.19316032 20.57948095 35.16462504 26.92706687 31 36 C30.34 36 29.68 36 29 36 C29 36.66 29 37.32 29 38 C22.74771823 42.50519027 17.61492019 42.49377768 10.0625 42.25 C8.99708984 42.23195312 7.93167969 42.21390625 6.83398438 42.1953125 C4.22171071 42.14845557 1.61133774 42.08286926 -1 42 C-1.19255164 36.66182919 -1.37122798 31.32344126 -1.53710938 25.984375 C-1.595477 24.16849343 -1.65762216 22.35272917 -1.72363281 20.53710938 C-1.81790706 17.92599852 -1.89854918 15.31476605 -1.9765625 12.703125 C-2.00875885 11.89256653 -2.0409552 11.08200806 -2.0741272 10.24688721 C-2.25881313 3.28414468 -2.25881313 3.28414468 0 0 Z M7 8 C7 16.91 7 25.82 7 35 C18.79105375 35.15931209 18.79105375 35.15931209 23 32 C25.3985364 28.53721235 25.20740118 25.37005892 25.125 21.25 C25.09792969 19.49429688 25.09792969 19.49429688 25.0703125 17.703125 C25.04710938 16.81109375 25.02390625 15.9190625 25 15 C24.34 15 23.68 15 23 15 C23 14.01 23 13.02 23 12 C22.34 12 21.68 12 21 12 C21 11.34 21 10.68 21 10 C19.35 10 17.7 10 16 10 C16 9.34 16 8.68 16 8 C13.03 8 10.06 8 7 8 Z " fill="#000000" transform="translate(64,149)"/>
<path d="M0 0 C6.22783455 0.08248295 10.37058302 1.50572608 15.87426758 4.25756836 C15.87426758 4.91756836 15.87426758 5.57756836 15.87426758 6.25756836 C16.53426758 6.25756836 17.19426758 6.25756836 17.87426758 6.25756836 C19.52502946 10.43302488 20.09510219 12.92915473 18.87426758 17.25756836 C18.68864258 18.18569336 18.50301758 19.11381836 18.31176758 20.07006836 C18.16739258 20.79194336 18.02301758 21.51381836 17.87426758 22.25756836 C17.21426758 22.25756836 16.55426758 22.25756836 15.87426758 22.25756836 C15.87426758 22.91756836 15.87426758 23.57756836 15.87426758 24.25756836 C14.88426758 24.91756836 13.89426758 25.57756836 12.87426758 26.25756836 C13.33833008 27.61881836 13.33833008 27.61881836 13.81176758 29.00756836 C14.60149387 31.42320174 15.30376054 33.78537121 15.87426758 36.25756836 C16.53426758 36.25756836 17.19426758 36.25756836 17.87426758 36.25756836 C18.53426758 37.90756836 19.19426758 39.55756836 19.87426758 41.25756836 C18.87426758 42.25756836 18.87426758 42.25756836 16.80786133 42.35522461 C15.98415039 42.34362305 15.16043945 42.33202148 14.31176758 42.32006836 C13.48547852 42.31104492 12.65918945 42.30202148 11.80786133 42.29272461 C11.16977539 42.28112305 10.53168945 42.26952148 9.87426758 42.25756836 C9.87426758 41.59756836 9.87426758 40.93756836 9.87426758 40.25756836 C9.21426758 40.25756836 8.55426758 40.25756836 7.87426758 40.25756836 C6.41363907 37.6101792 5.87426758 36.36308502 5.87426758 33.25756836 C5.21426758 33.25756836 4.55426758 33.25756836 3.87426758 33.25756836 C3.60614258 32.61819336 3.33801758 31.97881836 3.06176758 31.32006836 C1.98759006 28.9262515 1.98759006 28.9262515 -1.12573242 28.25756836 C-1.45573242 32.87756836 -1.78573242 37.49756836 -2.12573242 42.25756836 C-4.76573242 42.25756836 -7.40573242 42.25756836 -10.12573242 42.25756836 C-10.1503788 36.43685213 -10.16856672 30.61616602 -10.18066406 24.79541016 C-10.18570509 22.81363394 -10.1925378 20.83186147 -10.20117188 18.85009766 C-10.21324757 16.00804727 -10.21896287 13.16604589 -10.22338867 10.32397461 C-10.22854996 9.43231094 -10.23371124 8.54064728 -10.23902893 7.6219635 C-10.23922419 5.50016235 -10.18783272 3.37846056 -10.12573242 1.25756836 C-7.85754071 -1.01062335 -3.06271113 0.01123465 0 0 Z M-2.12573242 8.25756836 C-2.12573242 12.21756836 -2.12573242 16.17756836 -2.12573242 20.25756836 C0.84426758 20.25756836 3.81426758 20.25756836 6.87426758 20.25756836 C6.87426758 19.59756836 6.87426758 18.93756836 6.87426758 18.25756836 C7.86426758 18.25756836 8.85426758 18.25756836 9.87426758 18.25756836 C9.87426758 15.61756836 9.87426758 12.97756836 9.87426758 10.25756836 C8.88426758 10.25756836 7.89426758 10.25756836 6.87426758 10.25756836 C6.87426758 9.59756836 6.87426758 8.93756836 6.87426758 8.25756836 C3.90426758 8.25756836 0.93426758 8.25756836 -2.12573242 8.25756836 Z " fill="#000000" transform="translate(291.125732421875,148.742431640625)"/>
<path d="M0 0 C3.0625 0.1875 3.0625 0.1875 5.0625 2.1875 C5.36547852 4.72192383 5.36547852 4.72192383 5.44140625 7.89453125 C5.49264648 9.6105957 5.49264648 9.6105957 5.54492188 11.36132812 C5.57134766 12.56208984 5.59777344 13.76285156 5.625 15 C5.68513894 17.36077324 5.74880987 19.72145977 5.81640625 22.08203125 C5.84033447 23.13237549 5.8642627 24.18271973 5.88891602 25.26489258 C6.05132292 27.99931319 6.45250984 30.52105937 7.0625 33.1875 C11.18418689 34.81700412 13.76950357 35.45014601 18.0625 34.1875 C18.0625 33.5275 18.0625 32.8675 18.0625 32.1875 C18.7225 32.1875 19.3825 32.1875 20.0625 32.1875 C20.05464478 30.78673218 20.05464478 30.78673218 20.04663086 29.35766602 C20.0296238 25.90437204 20.01706698 22.45112233 20.00756836 18.99780273 C20.00252879 17.50105082 19.99569713 16.00430384 19.98706055 14.50756836 C19.97497841 12.36050193 19.96926809 10.21350038 19.96484375 8.06640625 C19.95698853 6.12616577 19.95698853 6.12616577 19.94897461 4.14672852 C20.0625 1.1875 20.0625 1.1875 21.0625 0.1875 C24.0625 0.0625 24.0625 0.0625 27.0625 0.1875 C29.02554505 2.15054505 28.22637489 5.93483755 28.23046875 8.6171875 C28.23546135 9.73639084 28.23546135 9.73639084 28.24055481 10.87820435 C28.24562755 12.46030052 28.24796303 14.04240742 28.24780273 15.62451172 C28.24998461 18.04542737 28.2681234 20.4658841 28.28710938 22.88671875 C28.29004414 24.42187344 28.29202838 25.9570303 28.29296875 27.4921875 C28.30015427 28.21727509 28.30733978 28.94236267 28.31474304 29.68942261 C28.29783409 33.41155059 28.18288582 35.00692127 26.0625 38.1875 C25.4025 38.1875 24.7425 38.1875 24.0625 38.1875 C24.0625 38.8475 24.0625 39.5075 24.0625 40.1875 C19.94540947 42.93222702 15.98462412 43.84528131 11.0625 44.1875 C6.91228854 43.34492351 3.5831109 41.53457394 0.0625 39.1875 C0.0625 38.5275 0.0625 37.8675 0.0625 37.1875 C-0.5975 37.1875 -1.2575 37.1875 -1.9375 37.1875 C-3.95382454 32.99802012 -4.18297476 29.57733037 -4.16796875 24.953125 C-4.16751053 24.27449402 -4.16705231 23.59586304 -4.1665802 22.89666748 C-4.1635733 21.47129554 -4.15573411 20.04592643 -4.14331055 18.62060547 C-4.12494168 16.43054695 -4.12280184 14.24090912 -4.12304688 12.05078125 C-4.08128746 0.26050771 -4.08128746 0.26050771 0 0 Z " fill="#000000" transform="translate(228.9375,148.8125)"/>
<path d="M0 0 C6.125 -0.4375 6.125 -0.4375 9 1 C9 2.65 9 4.3 9 6 C9.66 6 10.32 6 11 6 C12.42258812 9.82320557 13.24042276 12.91281305 13 17 C13.66 17 14.32 17 15 17 C16.42258812 20.82320557 17.24042276 23.91281305 17 28 C17.66 28 18.32 28 19 28 C20.75747614 32.50353262 21.19294408 36.17639811 21 41 C18.36 41 15.72 41 13 41 C11.23537317 37.91190305 11 36.76687864 11 33 C6.38 33.33 1.76 33.66 -3 34 C-3.37125 35.134375 -3.7425 36.26875 -4.125 37.4375 C-4.9453125 39.37109375 -4.9453125 39.37109375 -6 41 C-9.64040554 42.21346851 -11.35959446 42.21346851 -15 41 C-13.65685262 33.82375541 -11.36050813 26.89994685 -9 20 C-8.34 20 -7.68 20 -7 20 C-7.0928125 18.948125 -7.0928125 18.948125 -7.1875 17.875 C-6.9550258 14.31039562 -5.66696158 12.14158143 -4 9 C-3.649375 7.948125 -3.29875 6.89625 -2.9375 5.8125 C-2 3 -2 3 0 0 Z M3 14 C3 15.32 3 16.64 3 18 C2.34 18 1.68 18 1 18 C0.01 21.465 0.01 21.465 -1 25 C1.64 25 4.28 25 7 25 C6.32829194 21.1936543 5.27253436 17.64793184 4 14 C3.67 14 3.34 14 3 14 Z " fill="#000000" transform="translate(132,150)"/>
<path d="M0 0 C1.29292969 -0.01417969 2.58585938 -0.02835938 3.91796875 -0.04296875 C7.9433417 0.19524289 11.00804003 0.93908447 14.8125 2.1875 C14.8125 2.8475 14.8125 3.5075 14.8125 4.1875 C15.4725 4.1875 16.1325 4.1875 16.8125 4.1875 C16.8125 4.8475 16.8125 5.5075 16.8125 6.1875 C17.4725 6.1875 18.1325 6.1875 18.8125 6.1875 C21.33305505 9.96833258 21.27952178 13.80468019 20.8125 18.1875 C19.8125 20.6875 19.8125 20.6875 18.8125 22.1875 C18.1525 22.1875 17.4925 22.1875 16.8125 22.1875 C16.8125 22.8475 16.8125 23.5075 16.8125 24.1875 C13.0757157 26.67868953 11.06798181 26.3940226 6.625 26.3125 C5.35269531 26.29445312 4.08039063 26.27640625 2.76953125 26.2578125 C1.79371094 26.23460937 0.81789062 26.21140625 -0.1875 26.1875 C0.1425 26.8475 0.4725 27.5075 0.8125 28.1875 C0.88342842 30.3947923 0.89665025 32.60417452 0.875 34.8125 C0.86597656 36.00101563 0.85695312 37.18953125 0.84765625 38.4140625 C0.83605469 39.32929688 0.82445312 40.24453125 0.8125 41.1875 C-5.8125 43.3125 -5.8125 43.3125 -9.1875 42.1875 C-9.1875 28.6575 -9.1875 15.1275 -9.1875 1.1875 C-6.1686799 -0.32191005 -3.3565314 0.01656728 0 0 Z M-0.1875 8.1875 C0.1425 11.8175 0.4725 15.4475 0.8125 19.1875 C4.1125 18.8575 7.4125 18.5275 10.8125 18.1875 C10.874375 16.90875 10.93625 15.63 11 14.3125 C11.03480469 13.59320313 11.06960937 12.87390625 11.10546875 12.1328125 C11.00878906 11.49085938 10.91210938 10.84890625 10.8125 10.1875 C7.72361478 8.12824319 7.10314073 7.9484626 3.625 8.0625 C2.366875 8.10375 1.10875 8.145 -0.1875 8.1875 Z " fill="#000000" transform="translate(184.1875,148.8125)"/>
<path d="M0 0 C2.3125 -0.3125 2.3125 -0.3125 5 0 C7.22730705 2.61132551 7.93193172 4.47814317 8.375 7.875 C7.91875907 11.67700777 6.63234235 14.5469681 5 18 C3.24552611 21.83146137 2.6519635 25.11188695 2.375 29.3125 C2.30023438 30.38113281 2.22546875 31.44976562 2.1484375 32.55078125 C2.09945312 33.35902344 2.05046875 34.16726562 2 35 C-2.875 34.125 -2.875 34.125 -4 33 C-4.92201161 22.91055863 -3.9102966 15.95122922 1 7 C1.33 6.01 1.66 5.02 2 4 C1.34 4 0.68 4 0 4 C0 2.68 0 1.36 0 0 Z " fill="#000000" transform="translate(211,7)"/>
<path d="M0 0 C1.32 0 2.64 0 4 0 C6.20651618 3.30977427 6.44592388 4.16505462 6 8 C5.525625 8.886875 5.05125 9.77375 4.5625 10.6875 C2.49323635 15.07433895 2.27484649 19.20440268 2 24 C0.68 24 -0.64 24 -2 24 C-2 23.34 -2 22.68 -2 22 C-2.66 22 -3.32 22 -4 22 C-4.35933569 16.0110718 -3.91447482 12.36263366 -1 7 C-0.2863276 3.26228166 -0.2863276 3.26228166 0 0 Z " fill="#000000" transform="translate(201,15)"/>
<path d="M0 0 C1.65 0 3.3 0 5 0 C5.54470737 7.9587799 4.48901845 13.81947541 1 21 C1.66 21 2.32 21 3 21 C2.67 21.99 2.34 22.98 2 24 C0.35 23.67 -1.3 23.34 -3 23 C-3.53125544 9.73829009 -3.53125544 9.73829009 0 4 C0 2.68 0 1.36 0 0 Z " fill="#000000" transform="translate(222,15)"/>
</svg>
